<?xml version="1.0" encoding="UTF-8" standalone="no"?>
<!DOCTYPE svg PUBLIC "-//W3C//DTD SVG 1.1//EN" "http://www.w3.org/Graphics/SVG/1.1/DTD/svg11.dtd">
<svg version="1.1" xmlns="http://www.w3.org/2000/svg" xmlns:xlink="http://www.w3.org/1999/xlink" preserveAspectRatio="xMidYMid meet" viewBox="103.68522992557777 47.27270818644727 409.081945945946 474.4934054054054" width="20" height="23.23"><defs><path d="M489.94 102.57C500.85 102.57 506.31 108.03 506.31 118.94C506.31 146.65 506.31 162.05 506.31 165.13C506.31 176.04 500.85 181.5 489.94 181.5C283.13 181.5 168.24 181.5 145.26 181.5C134.34 181.5 128.89 176.04 128.89 165.13C128.89 137.42 128.89 122.02 128.89 118.94C128.89 108.03 134.34 102.57 145.26 102.57C352.07 102.57 466.96 102.57 489.94 102.57Z" id="a4gXkak4ul"></path><path d="M145.25 184.96C134.3 184.94 125.43 176.07 125.42 165.13C125.42 160.51 125.42 123.56 125.42 118.94C125.43 108 134.3 99.12 145.25 99.11C179.72 99.11 455.47 99.11 489.94 99.11C500.88 99.12 509.76 108 509.77 118.94C509.77 123.56 509.77 160.51 509.77 165.13C509.76 176.07 500.88 184.94 489.94 184.96C489.94 184.96 179.72 184.96 145.25 184.96ZM145.25 106.03C138.12 106.04 132.35 111.82 132.34 118.94C132.34 123.56 132.34 160.51 132.34 165.13C132.35 172.25 138.12 178.03 145.25 178.04C179.72 178.04 455.47 178.04 489.94 178.04C497.06 178.03 502.84 172.25 502.85 165.13C502.85 160.51 502.85 123.56 502.85 118.94C502.84 111.82 497.06 106.04 489.94 106.03C421 106.03 214.19 106.03 145.25 106.03Z" id="a4E8gfPvJV"></path><path d="M158.68 181.5C171.13 368.69 178.05 472.69 179.44 493.48C180.27 505.76 190.48 515.3 202.79 515.3C225.75 515.3 409.42 515.3 432.38 515.3C444.69 515.3 454.89 505.76 455.73 493.48C457.11 472.69 464.03 368.69 476.49 181.5L158.68 181.5Z" id="aj7vGvzfi"></path><path d="M476.52 181.47C464.03 368.69 457.08 472.71 455.7 493.51C454.87 505.78 444.67 515.31 432.38 515.31C409.42 515.31 225.77 515.31 202.81 515.31C190.51 515.31 180.32 505.78 179.49 493.51C179.49 493.5 179.49 493.46 179.49 493.37C316.11 493.37 392.01 493.37 407.19 493.37C419.51 493.4 429.74 483.87 430.58 471.58C431.87 452.24 438.3 355.53 449.88 181.47L476.52 181.47Z" id="c2scl84vAp"></path><path d="M257.03 461.71C257.35 467.93 252.57 473.23 246.35 473.54C240.13 473.86 234.84 469.08 234.52 462.86C233.36 440.15 224.11 258.47 222.95 235.76C222.61 228.69 228.06 222.68 235.13 222.34C242.2 222 248.21 227.45 248.55 234.52C248.55 234.52 256.19 438.99 257.03 461.71Z" id="aeoE4XxCr"></path><path d="M231.06 463.08C229.9 440.37 220.65 258.65 219.5 235.93C219.24 231.46 220.84 227.09 223.91 223.83C230.06 217.28 240.35 216.97 246.9 223.12C250.02 226.06 251.86 230.11 252.01 234.39C252.86 257.11 259.64 438.86 260.49 461.58C260.83 469.7 254.52 476.56 246.4 476.9C246.17 476.91 245.95 476.91 245.73 476.91C237.95 476.9 231.53 470.84 231.06 463.08ZM226.39 235.01C226.39 235.19 226.39 235.37 226.4 235.55C227.56 258.27 236.81 439.98 237.97 462.7C238.2 467 241.88 470.31 246.19 470.08C250.5 469.85 253.8 466.17 253.57 461.86C252.73 439.14 245.95 257.38 245.1 234.65C244.93 229.62 240.79 225.62 235.75 225.63C230.57 225.63 226.38 229.83 226.39 235.01Z" id="aSy3FFsE"></path><path d="M328.89 462.34C328.74 468.58 323.55 473.51 317.31 473.36C311.29 473.21 306.44 468.36 306.29 462.34C306.13 439.62 304.86 257.86 304.7 235.15C304.7 228.03 310.47 222.26 317.59 222.26C324.71 222.26 330.48 228.03 330.48 235.15C330.48 235.15 330.48 235.15 330.48 235.15C330.48 235.15 329.05 439.62 328.89 462.34Z" id="g2txbqTuEl"></path><path d="M302.84 462.39C302.68 439.67 301.41 257.9 301.25 235.17C301.25 226.14 308.57 218.82 317.6 218.82C326.63 218.82 333.95 226.14 333.95 235.17C333.95 235.17 333.95 235.17 333.95 235.17C333.79 257.89 332.52 439.64 332.37 462.36C332.22 470.43 325.66 476.9 317.59 476.92C309.54 476.89 302.99 470.44 302.84 462.39ZM308.16 235.15C308.32 257.86 309.59 439.6 309.75 462.31C309.75 466.65 313.26 470.16 317.59 470.16C321.92 470.16 325.43 466.65 325.43 462.31C325.59 439.6 326.86 257.89 327.02 235.17C327.05 229.93 322.83 225.66 317.59 225.63C317.59 225.63 317.59 225.63 317.59 225.63C312.36 225.66 308.14 229.91 308.16 235.15Z" id="a1Jx6yFLaZ"></path><path d="M400.67 462.86C400.37 469.08 395.1 473.87 388.88 473.58C382.82 473.29 378.07 468.24 378.16 462.17C378.16 462.14 378.16 461.99 378.16 461.73C383.24 325.41 386.07 249.68 386.63 234.54C386.97 227.47 392.98 222.01 400.05 222.36C407.12 222.7 412.57 228.71 412.23 235.78C412.23 235.78 412.23 235.78 412.23 235.78C412.23 235.77 401.83 440.15 400.67 462.86Z" id="aNV3Qupjp"></path><path d="M374.7 462.16C375.55 439.39 382.34 257.18 383.19 234.41C383.61 225.43 391.24 218.49 400.22 218.92C409.2 219.35 416.13 226.98 415.7 235.96C414.55 258.66 405.29 440.33 404.13 463.04C403.68 470.82 397.25 476.9 389.46 476.92C381.32 476.91 374.71 470.31 374.7 462.16ZM390.09 234.66C389.24 257.38 382.46 439.13 381.61 461.84C381.49 466.22 384.93 469.87 389.31 470C389.36 470 389.41 470 389.46 470C393.58 469.99 396.98 466.77 397.22 462.66C398.38 439.95 407.63 258.3 408.79 235.59C409.09 230.42 405.15 225.98 399.98 225.68C399.8 225.67 399.62 225.66 399.44 225.66C394.39 225.62 390.26 229.62 390.09 234.66Z" id="cMpO8cyyz"></path><path d="M246.23 106.03C244.32 106.03 242.77 104.48 242.77 102.57C242.77 100.04 242.77 79.83 242.77 77.3C242.79 61.28 255.78 48.29 271.8 48.27C280.96 48.27 354.23 48.27 363.39 48.27C379.41 48.29 392.4 61.28 392.42 77.3C392.42 79.82 392.42 100.04 392.42 102.57C392.42 104.48 390.87 106.03 388.96 106.03C388.96 106.03 388.96 106.03 388.96 106.03C360.41 106.03 260.5 106.03 246.23 106.03ZM249.69 99.11L385.5 99.11C385.5 86.02 385.5 78.75 385.5 77.3C385.48 65.1 375.59 55.21 363.39 55.19C354.23 55.19 280.96 55.19 271.8 55.19C259.6 55.21 249.71 65.1 249.69 77.3C249.69 80.21 249.69 87.48 249.69 99.11Z" id="b6jjn9Ufj"></path><path d="M104.69 118.73C104.83 96.42 122.94 78.39 145.25 78.34C145.92 78.34 151.3 78.34 151.97 78.34C153.88 78.34 155.43 79.89 155.43 81.8C155.43 83.71 153.88 85.26 151.97 85.26C151.3 85.26 145.92 85.26 145.25 85.26C126.74 85.31 111.73 100.26 111.6 118.77C111.59 120.67 110.04 122.19 108.14 122.19C106.23 122.19 104.69 120.65 104.69 118.73Z" id="apXMg3nTd"></path><path d="M169.7 85.28C167.79 85.28 166.24 83.73 166.24 81.82C166.24 79.91 167.79 78.36 169.7 78.36C170.39 78.36 175.93 78.36 176.62 78.36C178.53 78.36 180.08 79.91 180.08 81.82C180.08 83.73 178.53 85.28 176.62 85.28C175.24 85.28 170.39 85.28 169.7 85.28Z" id="a1bA269h4x"></path><path d="M482.11 409.79C480.2 409.67 478.76 408.02 478.88 406.11C478.88 406.11 478.88 406.11 478.88 406.11C478.91 405.7 479.13 402.41 479.16 402C479.32 400.11 480.94 398.69 482.84 398.78C484.75 398.9 486.19 400.55 486.06 402.46C486.06 402.46 486.06 402.46 486.06 402.46C486.04 402.87 485.81 406.16 485.79 406.57C485.66 408.38 484.16 409.79 482.34 409.79C482.29 409.79 482.13 409.79 482.11 409.79Z" id="bjoYGr2XI"></path><path d="M476.81 489.36C474.9 489.23 473.46 487.59 473.58 485.68C473.58 485.68 473.58 485.68 473.58 485.68C474 479.45 477.32 429.64 477.73 423.41C477.86 421.5 479.51 420.05 481.42 420.18C483.33 420.3 484.78 421.96 484.65 423.87C484.24 430.09 480.92 479.91 480.5 486.14C480.38 487.95 478.86 489.36 477.04 489.36C476.99 489.36 476.83 489.36 476.81 489.36Z" id="b1TxX6Ik33"></path><path d="M202.82 518.77C188.71 518.71 177.03 507.81 176.01 493.74C173.93 462.54 157.32 212.95 155.25 181.75C155.12 179.84 156.57 178.19 158.47 178.07C158.55 178.06 158.63 178.06 158.71 178.06C190.49 178.06 444.73 178.06 476.51 178.06C478.42 178.05 479.97 179.6 479.97 181.51C479.98 181.59 479.97 181.67 479.97 181.75C477.89 212.94 461.29 462.53 459.21 493.73C458.19 507.81 446.49 518.73 432.37 518.77C386.46 518.77 225.77 518.77 202.82 518.77ZM162.38 184.96C174.7 369.94 181.54 472.7 182.91 493.26C183.65 503.71 192.33 511.81 202.81 511.84C225.77 511.84 409.42 511.84 432.37 511.84C442.85 511.81 451.53 503.7 452.27 493.25C453.64 472.7 460.49 369.93 472.81 184.96L162.38 184.96Z" id="cvaa3DKU5"></path><path d="M293.77 153.68C293.77 153.68 293.77 153.68 293.77 153.68C294.22 153.68 297.87 153.68 298.33 153.68C300.69 153.68 302.6 155.6 302.6 157.96C302.6 160.33 300.69 162.24 298.33 162.24C297.87 162.24 294.22 162.24 293.77 162.24C291.4 162.24 289.49 160.33 289.49 157.97C289.49 157.96 289.49 157.96 289.49 157.96C289.49 155.6 291.4 153.68 293.77 153.68Z" id="b1nhzxQ8T"></path><path d="M315.24 153.68C315.24 153.68 315.24 153.68 315.24 153.68C321.67 153.68 373.1 153.68 379.53 153.68C381.89 153.68 383.8 155.6 383.8 157.96C383.8 160.33 381.89 162.24 379.53 162.24C373.1 162.24 321.67 162.24 315.24 162.24C312.88 162.24 310.97 160.33 310.97 157.97C310.97 157.96 310.97 157.96 310.97 157.96C310.97 155.6 312.88 153.68 315.24 153.68Z" id="a2C9EwwXkA"></path></defs><g><g><use xlink:href="#a4gXkak4ul" opacity="1" fill="#9297ab" fill-opacity="1"></use><g><use xlink:href="#a4gXkak4ul" opacity="1" fill-opacity="0" stroke="#000000" stroke-width="1" stroke-opacity="0"></use></g></g><g><use xlink:href="#a4E8gfPvJV" opacity="1" fill="#323c6b" fill-opacity="1"></use><g><use xlink:href="#a4E8gfPvJV" opacity="1" fill-opacity="0" stroke="#000000" stroke-width="1" stroke-opacity="0"></use></g></g><g><use xlink:href="#aj7vGvzfi" opacity="1" fill="#bbbbcd" fill-opacity="1"></use><g><use xlink:href="#aj7vGvzfi" opacity="1" fill-opacity="0" stroke="#000000" stroke-width="1" stroke-opacity="0"></use></g></g><g><use xlink:href="#c2scl84vAp" opacity="1" fill="#9297ab" fill-opacity="1"></use><g><use xlink:href="#c2scl84vAp" opacity="1" fill-opacity="0" stroke="#000000" stroke-width="1" stroke-opacity="0"></use></g></g><g><use xlink:href="#aeoE4XxCr" opacity="1" fill="#e1e6e9" fill-opacity="1"></use><g><use xlink:href="#aeoE4XxCr" opacity="1" fill-opacity="0" stroke="#000000" stroke-width="1" stroke-opacity="0"></use></g></g><g><use xlink:href="#aSy3FFsE" opacity="1" fill="#323c6b" fill-opacity="1"></use><g><use xlink:href="#aSy3FFsE" opacity="1" fill-opacity="0" stroke="#000000" stroke-width="1" stroke-opacity="0"></use></g></g><g><use xlink:href="#g2txbqTuEl" opacity="1" fill="#e1e6e9" fill-opacity="1"></use><g><use xlink:href="#g2txbqTuEl" opacity="1" fill-opacity="0" stroke="#000000" stroke-width="1" stroke-opacity="0"></use></g></g><g><use xlink:href="#a1Jx6yFLaZ" opacity="1" fill="#323c6b" fill-opacity="1"></use><g><use xlink:href="#a1Jx6yFLaZ" opacity="1" fill-opacity="0" stroke="#000000" stroke-width="1" stroke-opacity="0"></use></g></g><g><use xlink:href="#aNV3Qupjp" opacity="1" fill="#e1e6e9" fill-opacity="1"></use><g><use xlink:href="#aNV3Qupjp" opacity="1" fill-opacity="0" stroke="#000000" stroke-width="1" stroke-opacity="0"></use></g></g><g><use xlink:href="#cMpO8cyyz" opacity="1" fill="#323c6b" fill-opacity="1"></use><g><use xlink:href="#cMpO8cyyz" opacity="1" fill-opacity="0" stroke="#000000" stroke-width="1" stroke-opacity="0"></use></g></g><g><use xlink:href="#b6jjn9Ufj" opacity="1" fill="#323c6b" fill-opacity="1"></use><g><use xlink:href="#b6jjn9Ufj" opacity="1" fill-opacity="0" stroke="#000000" stroke-width="1" stroke-opacity="0"></use></g></g><g><use xlink:href="#apXMg3nTd" opacity="1" fill="#323c6b" fill-opacity="1"></use><g><use xlink:href="#apXMg3nTd" opacity="1" fill-opacity="0" stroke="#000000" stroke-width="1" stroke-opacity="0"></use></g></g><g><use xlink:href="#a1bA269h4x" opacity="1" fill="#323c6b" fill-opacity="1"></use><g><use xlink:href="#a1bA269h4x" opacity="1" fill-opacity="0" stroke="#000000" stroke-width="1" stroke-opacity="0"></use></g></g><g><use xlink:href="#bjoYGr2XI" opacity="1" fill="#323c6b" fill-opacity="1"></use><g><use xlink:href="#bjoYGr2XI" opacity="1" fill-opacity="0" stroke="#000000" stroke-width="1" stroke-opacity="0"></use></g></g><g><use xlink:href="#b1TxX6Ik33" opacity="1" fill="#323c6b" fill-opacity="1"></use><g><use xlink:href="#b1TxX6Ik33" opacity="1" fill-opacity="0" stroke="#000000" stroke-width="1" stroke-opacity="0"></use></g></g><g><use xlink:href="#cvaa3DKU5" opacity="1" fill="#323c6b" fill-opacity="1"></use><g><use xlink:href="#cvaa3DKU5" opacity="1" fill-opacity="0" stroke="#000000" stroke-width="1" stroke-opacity="0"></use></g></g><g><use xlink:href="#b1nhzxQ8T" opacity="1" fill="#ffffff" fill-opacity="1"></use><g><use xlink:href="#b1nhzxQ8T" opacity="1" fill-opacity="0" stroke="#000000" stroke-width="1" stroke-opacity="0"></use></g></g><g><use xlink:href="#a2C9EwwXkA" opacity="1" fill="#ffffff" fill-opacity="1"></use><g><use xlink:href="#a2C9EwwXkA" opacity="1" fill-opacity="0" stroke="#000000" stroke-width="1" stroke-opacity="0"></use></g></g></g></svg>