<?xml version="1.0" encoding="UTF-8" standalone="no"?>
<!DOCTYPE svg PUBLIC "-//W3C//DTD SVG 1.1//EN" "http://www.w3.org/Graphics/SVG/1.1/DTD/svg11.dtd">
<svg version="1.1" xmlns="http://www.w3.org/2000/svg" xmlns:xlink="http://www.w3.org/1999/xlink" preserveAspectRatio="xMidYMid meet" viewBox="294.3378553253052 236.61589445726105 53.32428934938952 72.2394499955679" width="49.32" height="68.24"><defs><path d="M343.6 238.41C345.02 239.47 345.02 241.14 343.6 242.11C340.95 244.09 327.69 253.96 303.83 271.74C327.69 289.51 340.95 299.38 343.6 301.36C345.02 302.42 345.02 304.09 343.6 305.06C342.89 305.59 341.95 305.86 341.12 305.86C340.18 305.86 339.35 305.59 338.64 305.06C334.42 301.91 300.62 276.73 296.4 273.59C295.69 273.06 295.34 272.44 295.34 271.74C295.34 271.03 295.69 270.33 296.4 269.88C304.85 263.59 334.42 241.56 338.64 238.41C340.06 237.35 342.3 237.35 343.6 238.41Z" id="a2CX7Vql3t"></path><linearGradient id="gradientf14vjLiCJX" gradientUnits="userSpaceOnUse" x1="320" y1="237.62" x2="320" y2="305.86"><stop style="stop-color: #00efd1;stop-opacity: 1" offset="0%"></stop><stop style="stop-color: #00acea;stop-opacity: 1" offset="100%"></stop></linearGradient><path d="M343.6 238.41C345.02 239.47 345.02 241.14 343.6 242.11C340.95 244.09 327.69 253.96 303.83 271.74C327.69 289.51 340.95 299.38 343.6 301.36C345.02 302.42 345.02 304.09 343.6 305.06C342.89 305.59 341.95 305.86 341.12 305.86C340.18 305.86 339.35 305.59 338.64 305.06C334.42 301.91 300.62 276.73 296.4 273.59C295.69 273.06 295.34 272.44 295.34 271.74C295.34 271.03 295.69 270.33 296.4 269.88C304.85 263.59 334.42 241.56 338.64 238.41C340.06 237.35 342.3 237.35 343.6 238.41Z" id="e16uDMdPD4"></path></defs><g><g><use xlink:href="#a2CX7Vql3t" opacity="1" fill="url(#gradientf14vjLiCJX)"></use><g><use xlink:href="#a2CX7Vql3t" opacity="1" fill-opacity="0" stroke="#000000" stroke-width="1" stroke-opacity="0"></use></g></g><g><use xlink:href="#e16uDMdPD4" opacity="1" fill="#79c8b6" fill-opacity="1"></use><g><use xlink:href="#e16uDMdPD4" opacity="1" fill-opacity="0" stroke="#000000" stroke-width="1" stroke-opacity="0"></use></g></g></g></svg>