<?xml version="1.0" encoding="UTF-8" standalone="no"?>
<!DOCTYPE svg PUBLIC "-//W3C//DTD SVG 1.1//EN" "http://www.w3.org/Graphics/SVG/1.1/DTD/svg11.dtd">
<svg version="1.1" xmlns="http://www.w3.org/2000/svg" xmlns:xlink="http://www.w3.org/1999/xlink" preserveAspectRatio="xMidYMid meet" viewBox="-0.9995184890516826 -1 643.9995184890516 644.0000000000001" width="30" height="30"><defs><path d="M75.87 590C65.19 590 58.76 584.04 55.87 580.49C50.88 574.36 48.95 566.38 50.57 558.59C76.52 433.98 186.44 342.94 313.37 339.87C315.57 339.96 317.78 340 320 340C322.24 340 324.47 339.96 326.69 339.87C365.59 340.78 403.01 349.66 438 366.3C450.47 372.22 465.38 366.92 471.31 354.45C477.24 341.98 471.93 327.06 459.46 321.14C447.16 315.29 434.62 310.25 421.85 306.04C463.2 275 490 225.57 490 170C490 76.26 413.74 0 320 0C226.26 0 150 76.26 150 170C150 225.63 176.86 275.11 218.29 306.14C180.33 318.64 144.71 338.08 113.54 363.73C56.37 410.75 16.63 476.33 1.62 548.4C-3.08 570.99 2.55 594.18 17.08 612.04C31.53 629.81 52.96 640 75.87 640C106.65 640 352.96 640 383.75 640C397.56 640 408.75 628.81 408.75 615C408.75 601.19 397.56 590 383.75 590C322.17 590 106.65 590 75.87 590ZM320 50C386.17 50 440 103.83 440 170C440 234.12 389.44 286.66 326.1 289.85C324.07 289.81 322.04 289.79 320 289.79C317.98 289.79 315.96 289.81 313.95 289.85C250.58 286.69 200 234.14 200 170C200 103.83 253.83 50 320 50ZM615 546.25C610.42 546.25 587.5 546.25 546.25 546.25C546.25 587.5 546.25 610.42 546.25 615C546.25 628.81 535.06 640 521.25 640C507.44 640 496.25 628.81 496.25 615C496.25 610.42 496.25 587.5 496.25 546.25C455 546.25 432.08 546.25 427.5 546.25C413.69 546.25 402.5 535.06 402.5 521.25C402.5 507.44 413.69 496.25 427.5 496.25C432.08 496.25 455 496.25 496.25 496.25C496.25 455 496.25 432.08 496.25 427.5C496.25 413.69 507.44 402.5 521.25 402.5C535.06 402.5 546.25 413.69 546.25 427.5C546.25 432.08 546.25 455 546.25 496.25C587.5 496.25 610.42 496.25 615 496.25C628.81 496.25 640 507.44 640 521.25C640 535.06 628.81 546.25 615 546.25Z" id="a24hqLOkQS"></path><linearGradient id="gradienta2j6Sj6Uaa" gradientUnits="userSpaceOnUse" x1="2.29" y1="329.92" x2="640" y2="320"><stop style="stop-color: #8bccbd;stop-opacity: 1" offset="0%"></stop><stop style="stop-color: #03effe;stop-opacity: 1" offset="100.00000000000003%"></stop><stop style="stop-color: #24d2fe;stop-opacity: 1" offset="100%"></stop><stop style="stop-color: #3cbdfe;stop-opacity: 1" offset="55.400000000000006%"></stop><stop style="stop-color: #4ab0fe;stop-opacity: 1" offset="79.60000000000001%"></stop><stop style="stop-color: #4facfe;stop-opacity: 1" offset="100%"></stop></linearGradient></defs><g><g><use xlink:href="#a24hqLOkQS" opacity="1" fill="url(#gradienta2j6Sj6Uaa)"></use><g><use xlink:href="#a24hqLOkQS" opacity="1" fill-opacity="0" stroke="#000000" stroke-width="1" stroke-opacity="0"></use></g></g></g></svg>