<?xml version="1.0" encoding="UTF-8" standalone="no"?>
<!DOCTYPE svg PUBLIC "-//W3C//DTD SVG 1.1//EN" "http://www.w3.org/Graphics/SVG/1.1/DTD/svg11.dtd">
<svg version="1.1" xmlns="http://www.w3.org/2000/svg" xmlns:xlink="http://www.w3.org/1999/xlink" preserveAspectRatio="xMidYMid meet" viewBox="289.1115942028987 236.79372463768118 81.27300000000002 91.91300000000001" width="77.27" height="87.91"><defs><path d="M320.7 242.32L333.34 249.5L345.97 256.55C345.97 265.24 345.97 270.08 345.97 271.04C345.97 279.02 346.37 285.54 346.77 285.54C347.17 285.54 349.3 284.48 351.42 283.28C351.69 283.12 353.02 282.32 355.41 280.89L355.02 266.39L354.62 251.76C347.43 247.61 343.44 245.3 342.65 244.84C336.13 240.99 330.41 237.79 330.01 237.79C329.61 237.79 327.35 238.86 325.09 240.05C324.51 240.36 323.04 241.11 320.7 242.32Z" id="cc0SHBYBU"></path><path d="M291.71 263.46C291.68 263.8 291.55 265.48 291.31 268.52C296.66 265.56 299.63 263.92 300.22 263.6C305.14 260.8 310.73 257.61 312.72 256.55C316.18 254.55 316.71 254.68 329.21 261.87C330.06 262.37 334.32 264.9 341.98 269.45C341.98 266.5 341.98 264.85 341.98 264.53C341.98 259.21 342.25 259.47 322.03 247.9C321.63 247.68 319.64 246.57 316.05 244.58L304.08 251.49C296.1 256.28 291.97 260.27 291.71 263.46Z" id="a2bYZwdvA"></path><path d="M357.94 284.88C350.76 288.87 346.77 291.08 345.97 291.53C334.13 298.04 334 298.18 336.79 300.44C338.39 301.77 340.52 302.83 341.45 302.83C342.51 302.83 348.76 299.77 355.28 296.05C356.09 295.59 360.12 293.28 367.38 289.13L366.99 274.5L366.59 259.74L362.33 257.21L357.94 254.68L357.94 269.85L357.94 284.88Z" id="i2wANkqN7"></path><path d="M290.11 274.24L290.51 288.6L290.78 302.96L295.03 305.62L299.42 308.42L299.42 293.79L299.42 279.02C306.6 274.87 310.59 272.57 311.39 272.11C318.04 268.38 323.36 264.93 323.36 264.39C323.36 263.99 321.77 262.66 319.64 261.6C316.18 259.61 315.65 259.74 303.15 266.92C301.41 267.9 297.06 270.33 290.11 274.24Z" id="bcCEhE7iY"></path><path d="M303.41 282.08L303.41 296.31L303.41 310.68L316.18 318.26L328.95 325.71L333.34 323.31L337.86 320.92C335.7 319.64 334.51 318.93 334.27 318.79C332.27 317.59 326.69 314.4 321.77 311.61C321.17 311.28 318.2 309.64 312.85 306.69L312.46 292.32L312.06 277.96L307.8 279.95L303.41 282.08Z" id="b8s3TJWDw"></path><path d="M341.58 308.15C340.92 308.15 335.46 305.09 329.21 301.5C322.96 297.78 317.64 294.85 317.38 294.85C316.98 294.85 316.71 296.85 316.71 299.37C316.71 303.76 317.38 304.43 328.42 310.94C334.8 314.67 340.65 317.86 341.32 317.86C342.11 317.86 348.23 314.67 355.02 310.81C366.99 303.76 367.25 303.5 367.25 298.57C367.25 295.78 367.12 293.52 366.99 293.65C366.72 293.65 361.27 296.98 354.62 300.97C348.1 304.83 342.11 308.15 341.58 308.15Z" id="a7i1kRnxaa"></path></defs><g><g><use xlink:href="#cc0SHBYBU" opacity="1" fill="#000000" fill-opacity="1"></use><g><use xlink:href="#cc0SHBYBU" opacity="1" fill-opacity="0" stroke="#000000" stroke-width="1" stroke-opacity="0"></use></g></g><g><use xlink:href="#a2bYZwdvA" opacity="1" fill="#000000" fill-opacity="1"></use><g><use xlink:href="#a2bYZwdvA" opacity="1" fill-opacity="0" stroke="#000000" stroke-width="1" stroke-opacity="0"></use></g></g><g><use xlink:href="#i2wANkqN7" opacity="1" fill="#000000" fill-opacity="1"></use><g><use xlink:href="#i2wANkqN7" opacity="1" fill-opacity="0" stroke="#000000" stroke-width="1" stroke-opacity="0"></use></g></g><g><use xlink:href="#bcCEhE7iY" opacity="1" fill="#000000" fill-opacity="1"></use><g><use xlink:href="#bcCEhE7iY" opacity="1" fill-opacity="0" stroke="#000000" stroke-width="1" stroke-opacity="0"></use></g></g><g><use xlink:href="#b8s3TJWDw" opacity="1" fill="#000000" fill-opacity="1"></use><g><use xlink:href="#b8s3TJWDw" opacity="1" fill-opacity="0" stroke="#000000" stroke-width="1" stroke-opacity="0"></use></g></g><g><use xlink:href="#a7i1kRnxaa" opacity="1" fill="#000000" fill-opacity="1"></use><g><use xlink:href="#a7i1kRnxaa" opacity="1" fill-opacity="0" stroke="#000000" stroke-width="1" stroke-opacity="0"></use></g></g></g></svg>