<svg xmlns="http://www.w3.org/2000/svg" width="318.686" height="307.867" viewBox="0 0 318.686 307.867">
  <path id="shape-2" d="M311.443,572.995c.037-.283.114-.557.137-.831q1.09-6.921,1.567-13.549c2.549-33.964-6.341-61.227-27.249-74.41-23.681-14.942-57.015-8.1-90.663,14.924-21.909-16.934-44.21-27.815-64.022-27.815-11.562,0-21.89,2.869-30.666,8.579-20.36,13.27-29.944,45.759-26.966,80.787v.059c3.664-2.056,7.524-4.025,11.544-5.861-1.375-28.021,6.231-54.918,21.858-65.059,6.829-4.468,14.993-6.692,24.229-6.692,16.559,0,35.257,9.26,53.94,23.371A262.174,262.174,0,0,0,147.1,543.444c-23.192,3.248-44.279,9.191-61.962,17.341q-6.044,2.741-11.553,5.866c-28.258,15.828-45.462,37.737-45.462,62.3,0,25.8,19.026,48.65,49.879,64.671-.128,1.16-.32,2.407-.388,3.563-2.453,33.781,6.436,60.916,27.253,74.068,23.138,14.6,55.471,8.423,88.352-13.357,17.441,9.917,34.768,15.454,50.473,15.454,11.58,0,21.895-2.892,30.7-8.615,18.93-12.334,28.373-36.28,27.267-67.763-3.7,2.074-7.574,4.079-11.63,5.929-.2,24.435-7.821,42.671-22.073,51.93-6.852,4.458-14.983,6.692-24.252,6.692-12.384,0-26.015-3.933-39.9-11.123a250.678,250.678,0,0,0,35.115-32.881c1.667-1.9,3.335-3.842,5-5.792a213.24,213.24,0,0,0,46.111-14.7q6.085-2.837,11.63-5.948C329.7,675.252,346.8,653.4,346.8,628.954,346.8,607.507,333.584,588.147,311.443,572.995ZM165.724,540.566a231.949,231.949,0,0,1,29.117-26.317,323.246,323.246,0,0,1,23.722,22.123q9.435.994,18.41,2.568a328.063,328.063,0,0,0-32-31.886c28.249-18.437,55.439-24.047,74.214-12.238,16.089,10.155,23.261,31.406,22.164,58.358-.16,4.157-.553,8.446-1.1,12.846-17.441-9.611-39.025-16.93-63.264-21.173q-8.97-1.569-18.414-2.567a296.475,296.475,0,0,0-31.118-1.626c-7.729,0-15.253.352-22.694.918C165.309,540.986,165.724,540.566,165.724,540.566ZM39.932,628.945c0-18.871,13.289-36.18,35.234-49.528,3.508-2.12,7.231-4.157,11.132-6.071,14.225-6.953,31.118-12.393,49.738-16.007-.717.969-1.453,1.882-2.161,2.842q-7.113,9.614-13.732,20.086a326,326,0,0,0-21.1,39.076,177.159,177.159,0,0,1-10.329-40.085q-5.92,2.878-11.151,6.085a205.567,205.567,0,0,0,14.645,50.382,234.308,234.308,0,0,0-12.59,45.288C55.012,667.372,39.932,649.063,39.932,628.945Zm179.742,91.486a222.064,222.064,0,0,1-27.317,23.389,196.243,196.243,0,0,1-27.724-21.575c-6.436-.471-12.686-1.179-18.812-2.038a226.352,226.352,0,0,0,36.02,30.679C155,767.323,129.458,771.9,111.56,760.616,95.7,750.617,88.5,729.782,89.345,703.3l.343-4.212a227.982,227.982,0,0,0,56.133,15.193c6.126.891,12.375,1.589,18.812,2.069,7.428.557,15.052.886,22.822.886a292.238,292.238,0,0,0,37.692-2.476C223.337,716.676,221.506,718.585,219.674,720.431ZM255.7,696.686c5.125-6.839,10.141-13.978,14.906-21.534,4.7-7.446,8.926-14.91,12.873-22.37a174.915,174.915,0,0,1,5.98,31.328A185.167,185.167,0,0,1,255.7,696.686Zm29.259-75.223a279.451,279.451,0,0,0-23.508-44.37,130.49,130.49,0,0,0-8.049-11.74c-5.8-1.389-11.763-2.586-17.953-3.577a172.486,172.486,0,0,1,16.107,21.785,265.657,265.657,0,0,1,26.71,52.967A313.835,313.835,0,0,1,260.549,668.8a314.234,314.234,0,0,1-23.133,32,271.864,271.864,0,0,1-49.961,4.6,275.223,275.223,0,0,1-36.1-2.335c-6.267-.8-18.263-3.074-18.263-3.074a202.08,202.08,0,0,1-42.123-13.348,205.6,205.6,0,0,1,8.574-35.75,232.919,232.919,0,0,0,13.933,22.535c7.976,11.461,9.054,13.06,15.961,21.328,5.907,1.224,12,2.284,18.272,3.088-9.954-10.758-14.6-15.262-24.339-30.858a317.305,317.305,0,0,1-17.829-32.292,304.152,304.152,0,0,1,24.691-48.061,310.5,310.5,0,0,1,22.475-31.282,9.469,9.469,0,0,0,.608-.736,283.1,283.1,0,0,1,34.156-2.138,275.423,275.423,0,0,1,43.534,3.39c6.144.991,12.142,2.188,17.921,3.568,18.93,4.527,35.7,11.06,49.285,19.045A237.1,237.1,0,0,1,284.957,621.463Zm15.65,56.476a204.8,204.8,0,0,0-9.543-40.451,262.513,262.513,0,0,0,17.912-51.757c16.358,12.284,26,27.176,26,43.224C334.978,647.565,322.045,664.659,300.607,677.938ZM204.64,625.281a23.085,23.085,0,1,1-23.083-23.087A23.081,23.081,0,0,1,204.64,625.281Z" transform="translate(-28.119 -471.313)" fill="#8c96a7" opacity="0.03"/>
</svg>
