<svg xmlns="http://www.w3.org/2000/svg" width="260.508" height="297.738" viewBox="0 0 260.508 297.738">
  <path id="shape-5" d="M839.6,351.436H826.839a111.539,111.539,0,0,0-34.291-201.16l21.007-39.832a9.606,9.606,0,0,0-4.07-12.938L759.24,73.194a9.164,9.164,0,0,0-7.2-.293,10.208,10.208,0,0,0-5.488,5.124L687.063,190.762c-4.743,9.815-1.09,21.408,8.139,25.877l-8.1,16.718,33.509,16.208,8.1-16.68h0c9.267,4.471,20.606.146,25.367-9.7l20.207-38.305c36.708,4.579,65.31,35.58,65.31,73.522a74.529,74.529,0,0,1-74.431,74.431c-18.716,0-42.814-7.123-55.823-18.608v-9.305a9.286,9.286,0,0,1,9.3-9.3h46.52V277.006H616.3v18.608h46.518a9.288,9.288,0,0,1,9.305,9.3v46.521c-20.553,0-37.215-1.963-37.215,18.608h241.9C876.811,349.473,860.146,351.436,839.6,351.436ZM774.467,97.07a12.924,12.924,0,0,0-5.977,6.106l-42.829,80.791-16.319-7.922a19.033,19.033,0,0,1,.979-3.671l40.889-75.74a10.212,10.212,0,0,1,5.485-5.124,9.171,9.171,0,0,1,7.2.293l10.791,5.233C774.613,97.07,774.543,97.035,774.467,97.07Z" transform="translate(-616.303 -72.306)" fill="#8c96a7" opacity="0.06"/>
</svg>
