<svg xmlns="http://www.w3.org/2000/svg" width="405.893" height="405.894" viewBox="0 0 405.893 405.894">
  <g id="shape-1" transform="matrix(0.985, -0.174, 0.174, 0.985, -670.951, -311.052)" opacity="0.06">
    <path id="Path_168" data-name="Path 168" d="M944.024,546.4a8.649,8.649,0,0,0-12.225,0c-1,1.013-2.6.233-4.271-1.426-9.919-9.851-42.767-42.507-43.959-43.979-1.4-1.731-1.14-3.014-.666-3.489a8.64,8.64,0,1,0-12.217-12.22c-25.651,25.816-32.348,59.4-36.054,92.171-.135,1.171-.588,1.685-1.625,1.781-37.723,3.753-77.548,6.319-105.948,34.4-28.077,28.4-30.637,68.22-34.388,105.938a2.233,2.233,0,0,1-2.115,1.674c-32.659,3.711-66.1,10.442-91.847,36.015a8.645,8.645,0,0,0,12.225,12.225c.8-.809,1.62-1.591,2.447-2.348,1.254-1.15,2.068-1.34,3.851.436,8.955,8.942,44.278,44.213,45.1,45.1a2.452,2.452,0,0,1,.01,3.069c-.809.891-1.648,1.773-2.517,2.628A8.646,8.646,0,0,0,672.048,830.6c25.6-25.78,32.322-59.279,36.031-91.989.156-1.338.4-1.858,1.653-1.98,37.72-3.742,77.532-6.308,105.935-34.388,28.079-28.4,30.655-68.22,34.4-105.94.093-1.039.594-1.493,1.8-1.63,32.757-3.709,66.341-10.4,92.16-36.049A8.651,8.651,0,0,0,944.024,546.4ZM680.992,784.127a105.946,105.946,0,0,1-6.021,13.607,1.63,1.63,0,0,1-2.6.073c-7.643-7.656-39.182-39.208-40.608-40.6-1.617-1.6-.482-2.718.241-3.1a106.3,106.3,0,0,1,13.617-5.948,3.8,3.8,0,0,1,3.634.65c.858.912,24,24.013,30.8,30.808C681.894,781.447,681.707,782.17,680.992,784.127Zm9.5-43.8c-.788,6.448-1.719,12.785-2.885,18.956-.156.827-.72,2.354-1.923,1.034-.959-1.058-12.14-12.184-16.452-16.468-1.037-1.031.085-2.019.967-2.185,6.075-1.14,12.311-2.053,18.65-2.83C689.837,738.712,690.63,739.155,690.488,740.326Zm27.592-21.838c-2,.192-3.991.384-6.008.57-1.581.148-1.91-.863-1.8-2.032q.272-2.947.557-5.863c.067-.726.518-1.918,1.918-.479.889.923,3.735,3.755,5.676,5.689C719.516,717.464,718.831,718.413,718.08,718.488Zm43.894-6.762c-5.616,1.425-11.461,2.592-17.515,3.551a4.026,4.026,0,0,1-3.359-1.153c-1.1-1.042-19.783-19.77-25.63-25.632-1.76-1.757-1.571-2.877-1.306-4.51.9-5.528,1.969-10.883,3.268-16.043.482-1.944,1.625-1.578,2.755-.617,0,0,40.877,40.994,42.03,42.033A1.324,1.324,0,0,1,761.974,711.726Zm34.644-15.716a75.159,75.159,0,0,1-12.036,7.516c-1.6.814-2.6.677-4-.731-9.538-9.535-53.556-53.546-54.445-54.442a3.165,3.165,0,0,1-.552-3.237,76.375,76.375,0,0,1,7.677-12.4,2.5,2.5,0,0,1,2.734-.376s59.216,59.134,60.339,60.336S797.188,695.572,796.618,696.01Zm22.009-28.292a80.393,80.393,0,0,1-6.692,12.036,2.374,2.374,0,0,1-3.7-.093c-1.565-1.573-59.784-59.782-59.784-59.782-.542-.542-.371-1.493.5-2.094a79.737,79.737,0,0,1,12.624-7.1c.824-.371,2.491-.969,4.616,1.05,1.864,1.768,41.567,41.538,51.35,51.338A5.047,5.047,0,0,1,818.627,667.718ZM829.388,626.4c-.868,6.122-1.905,12.062-3.193,17.78-.153.715-.821,1.765-2.066.565s-38.179-38.158-39.511-39.519-.2-1.965.526-2.125c5.406-1.213,11.015-2.2,16.787-3.043.982-.148,2.532-.871,4.416,1.016l21.737,21.74A5.4,5.4,0,0,1,829.388,626.4Zm2.789-24.42-4.847-4.846c1.77-.171,3.553-.332,5.339-.5C832.5,598.422,832.34,600.211,832.177,601.981Zm45.579-28.838c-6.062,1.3-12.334,2.294-18.7,3.159-6.446.884-6.9.1-6.047-6.044.855-6.311,1.838-12.521,3.118-18.526a1.143,1.143,0,0,1,2.05-.42c4.924,4.893,19.451,19.334,20,20.008A1.086,1.086,0,0,1,877.755,573.142Zm35.326-12.609a102,102,0,0,1-11,5.29,5.362,5.362,0,0,1-5.38-.91c-1.63-1.368-23.5-23.406-31.539-31.518a7.283,7.283,0,0,1-1.581-6.4,100.23,100.23,0,0,1,5.383-11.106,2.767,2.767,0,0,1,4.269-.321c8.937,8.895,38.213,38.065,40.177,40.188C915.717,558.258,914.162,559.922,913.081,560.533Z" transform="translate(0 0)" fill="#8c96a7"/>
    <g id="Group_219" data-name="Group 219" transform="translate(601.009 487.581)">
      <path id="Path_169" data-name="Path 169" d="M688.5,582.348c.145-1.379.29-2.758.422-4.139.164-1.633-1.127-1.6-1.8-1.527-31.956,3.68-63.535,10.245-87.957,34.517a3.813,3.813,0,0,0,5.375,5.409c20.895-21.073,49.386-28.165,82-32.151A2.106,2.106,0,0,0,688.5,582.348Z" transform="translate(-598.042 -338.112)" fill="#8c96a7"/>
      <path id="Path_170" data-name="Path 170" d="M807.447,485.738a3.809,3.809,0,0,0-5.383-.016c-28.9,29.074-32.729,68.249-36.451,106.415-3.382,36.754-6.879,74.754-30.777,98.305-22.312,22.647-57.532,27-92.614,30.3q-.381,3.841-.778,7.713l1.358-.132c35.225-3.437,71.639-6.98,97.375-32.436,25.505-25.785,29.046-62.218,32.485-97.45l.544-5.541c3.812-40.875,9-76.747,34.227-101.771A3.811,3.811,0,0,0,807.447,485.738Z" transform="translate(-528.956 -484.616)" fill="#8c96a7"/>
    </g>
    <path id="Path_171" data-name="Path 171" d="M654.139,683.281c-4.139,30.24-11.577,56.63-31.394,76.291a3.814,3.814,0,0,0,5.378,5.409c22.89-23.043,30.028-52.426,33.874-82.617l2.67-24.86c3.361-36.422,7.018-73.922,30.673-97.245,23.075-23.406,59.875-27.278,96.066-30.619a2.614,2.614,0,0,0,1.376-1.539c.163-1.635.327-3.276.5-4.917.106-1.083-.448-1.516-1.143-1.283l-4.795.479c-35.206,3.437-71.623,6.985-97.346,32.433-25.487,25.77-29.028,62.166-32.47,97.37Z" transform="translate(40.501 62.213)" fill="#8c96a7"/>
    <g id="Group_220" data-name="Group 220" transform="translate(718.536 604.429)">
      <path id="Path_172" data-name="Path 172" d="M711.755,578.121c.327-1.083.653-2.174.975-3.281.459-1.612.337-2.8-1.555-4.7-7.925-7.946-34.224-34.31-35.872-35.865a4.821,4.821,0,0,0-4.639-1.459q-1.711.5-3.38,1.042c-.923.3-2.3,1.485-.461,3.216,1.55,1.459,31.943,31.91,41.281,41.271C709.808,580.055,711.439,579.114,711.755,578.121Z" transform="translate(-607.533 -524.963)" fill="#8c96a7"/>
      <path id="Path_173" data-name="Path 173" d="M694.9,542.534q.455-2.986.881-5.992a4.623,4.623,0,0,0-.889-3.255c-.822-.834-2.828-2.825-2.828-2.825a2.436,2.436,0,0,0-2.506-.7q-3.421.358-6.777.749c-1.148.135-.946.907-.477,1.485,0,0,10.313,10.346,11,11A.922.922,0,0,0,694.9,542.534Z" transform="translate(-582.038 -529.701)" fill="#8c96a7"/>
      <path id="Path_174" data-name="Path 174" d="M714.066,600.3c.407-.422.8-.86,1.192-1.3,1.884-2.164.656-3.027-.552-4.4,0,0-52.465-52.631-54.157-54.157s-2.791-1.257-3.2-.891q-1.571,1.407-3.079,2.929c-.5.49-1.138,1.659.526,3.473s54.5,54.5,54.5,54.5A3.27,3.27,0,0,0,714.066,600.3Z" transform="translate(-626.95 -514.477)" fill="#8c96a7"/>
      <path id="Path_175" data-name="Path 175" d="M655.08,584.444c1.472-.161,2.986-.334,4.538-.536.915-.117,1.573-1.6-.192-3.367-3.929-3.955-10.567-10.611-12.384-12.376-2.631-2.553-2.981-.772-3.1.21q-.261,2.1-.5,4.237a5.841,5.841,0,0,0,1.41,4.642c1.052,1.322,3.989,4.173,5.85,5.943A6.041,6.041,0,0,0,655.08,584.444Z" transform="translate(-643.389 -470.566)" fill="#8c96a7"/>
      <path id="Path_176" data-name="Path 176" d="M691.938,600.923q1.816-.606,3.595-1.259c.866-.319,2.239-1.317.073-3.486s-44.094-44.094-44.094-44.094c-1.117-1.213-2.947-1.545-3.509-.065q-.673,1.807-1.3,3.665a4.406,4.406,0,0,0,1.115,3.994c1.161,1.361,30.4,30.453,39.366,39.374C688.82,600.672,691.22,601.165,691.938,600.923Z" transform="translate(-638.307 -495.738)" fill="#8c96a7"/>
    </g>
    <g id="Group_221" data-name="Group 221" transform="translate(865.245 509.865)">
      <path id="Path_177" data-name="Path 177" d="M751.683,534.042l-40.831-40.828c-1.755,2.058-3.354,4.2-4.88,6.391l39.3,39.3Q748.45,536.686,751.683,534.042Z" transform="translate(-690.481 -493.214)" fill="#8c96a7"/>
      <path id="Path_178" data-name="Path 178" d="M728.268,531.667,702.53,505.928c-.941,2.861-1.762,5.8-2.535,8.765l19.521,19.518C722.51,533.424,725.423,532.592,728.268,531.667Z" transform="translate(-699.995 -472.976)" fill="#8c96a7"/>
    </g>
    <g id="Group_222" data-name="Group 222" transform="translate(627.301 751.092)">
      <path id="Path_179" data-name="Path 179" d="M644.092,608.513c.368-1.265.733-2.532,1.086-3.823.2-.746.658-2.04-1.164-4.022-1.358-1.475-8.9-8.952-12.635-12.658-1.555-1.545-2.682-1.951-4.082-1.607q-2.488.614-4.932,1.309c-1.49.425-1.247,1.332-.192,2.374,4.813,4.753,17.645,17.458,19.047,19.062C642.957,611.134,643.822,609.418,644.092,608.513Z" transform="translate(-587.291 -586.289)" fill="#8c96a7"/>
      <path id="Path_180" data-name="Path 180" d="M649.136,634.646c.627-.912,1.252-1.843,1.848-2.8a3.69,3.69,0,0,0-.49-3.927c-7.13-7.153-33.125-33.226-34.621-34.613-1.729-1.607-3.2-1.392-3.737-1.029q-1.559,1.058-3.071,2.177c-.632.466-1.557,1.607-.106,3.193,1.26,1.379,29.559,29.59,37.06,37.059A2.108,2.108,0,0,0,649.136,634.646Z" transform="translate(-608.187 -577.161)" fill="#8c96a7"/>
    </g>
    <g id="Group_223" data-name="Group 223" transform="translate(858.326 548.695)">
      <path id="Path_181" data-name="Path 181" d="M779.607,509.313a3.806,3.806,0,0,0-5.38-.005c-18.912,19.062-44.026,26.674-72.779,30.9-2.947.43-3.579.925-3.828,3.027-.093.741-.176,1.482-.257,2.224-.246,2.086.7,2.986,3.185,2.651,28.864-3.942,56.9-11.386,79.059-33.395A3.817,3.817,0,0,0,779.607,509.313Z" transform="translate(-697.326 -508.196)" fill="#8c96a7"/>
    </g>
  </g>
</svg>
