<svg xmlns="http://www.w3.org/2000/svg" width="196.39" height="305.228" viewBox="0 0 196.39 305.228">
  <g id="shape-4" transform="translate(-24.199 -12.537)" opacity="0.06">
    <path id="Path_72" data-name="Path 72" d="M135.064,198.54H76.587a10.366,10.366,0,0,1-9.746-7.716c-.812-3.655-1.624-8.528-2.437-14.213-3.249-19.086-8.122-48.324-19.9-64.974-1.624-2.03-3.249-4.467-4.873-6.5-3.655-4.467-7.31-8.934-10.152-14.619-2.437-4.873-10.558-22.335,0-33.3,12.183-12.995,27.208-.406,31.675,3.655L62.781,62.1c4.873,4.061,9.34,8.122,14.213,10.558,13.807,7.31,28.426,7.31,45.076,0,.812-.406,2.03-.812,2.843-1.218a47.58,47.58,0,0,1,14.619-4.873,15.788,15.788,0,0,1,7.716,1.218,14.249,14.249,0,0,1,6.091,7.31c2.03,5.685.406,11.37-1.218,15.837a116.943,116.943,0,0,1-5.279,12.589l-1.218,2.843c-1.624,3.655-3.249,6.9-3.655,10.152-3.655,17.462-.406,59.695,2.843,69.441a11.438,11.438,0,0,1-1.218,8.934A11.06,11.06,0,0,1,135.064,198.54ZM85.115,179.048h38.172c-2.843-19.086-4.061-50.355-.812-66.6a64.741,64.741,0,0,1,5.279-14.213l1.218-2.437c.812-1.624,1.218-3.249,2.03-4.873-.406,0-.406.406-.812.406-21.929,9.746-43.045,9.34-62.131-.812-6.9-3.655-12.589-8.528-17.868-12.995L48.568,75.9A21.21,21.21,0,0,0,44.1,72.653a42.933,42.933,0,0,0,2.843,8.934,53.235,53.235,0,0,0,8.122,11.37c2.03,2.437,3.655,4.873,5.685,7.31,14.619,20.71,19.9,52.385,23.147,73.1C84.3,175.393,84.709,177.423,85.115,179.048Zm49.136-97.461Z" transform="translate(0 119.224)" fill="#8c96a7"/>
    <path id="Path_73" data-name="Path 73" d="M80.271,181.319A49.046,49.046,0,0,1,48.19,95.229c5.685-4.873,12.183-8.122,20.3-10.558,4.061-1.218,8.528-4.873,12.589-8.528l.406-.406a112.048,112.048,0,0,0,20.3-23.959,137.861,137.861,0,0,0,12.995-22.741c1.218-2.843,3.249-6.5,4.467-10.152,2.03-4.873,7.716-7.716,12.589-5.685L192.351,35.94a9.313,9.313,0,0,1,6.091,7.31,9.455,9.455,0,0,1-3.249,9.34c-2.03,2.03-4.467,4.061-6.5,6.091-6.5,6.5-12.995,13.4-19.086,20.71a265.783,265.783,0,0,0-23.553,31.675,208.288,208.288,0,0,0-19.9,38.984,50.141,50.141,0,0,1-25.583,27.614A57.9,57.9,0,0,1,80.271,181.319ZM134.281,35.128l-1.218,2.437a215.194,215.194,0,0,1-14.619,25.177c-7.716,11.37-15.431,20.3-23.959,27.614l-.406.406C88.8,95.229,82.3,101.32,73.774,103.351c-5.279,1.624-9.34,3.655-12.589,6.5a29.4,29.4,0,0,0,8.934,49.542,28.429,28.429,0,0,0,22.335-.812,28.855,28.855,0,0,0,15.431-16.243c5.279-14.213,12.589-28.02,21.929-42.639a362.821,362.821,0,0,1,25.177-33.705c5.279-6.091,10.558-11.776,15.837-17.462Z" transform="translate(21.9 0)" fill="#8c96a7"/>
  </g>
</svg>
