<svg xmlns="http://www.w3.org/2000/svg" width="273.917" height="296.553" viewBox="0 0 273.917 296.553">
  <path id="shape-7" d="M572.44,239.311V128.476A24.058,24.058,0,1,0,544.9,92.338l-69.456-23.05c.069-.743.185-1.471.185-2.224a24.063,24.063,0,0,0-48.125,0c0,.778.044,1.549.116,2.305L359.206,92.285a24.06,24.06,0,1,0-25.1,36.841V238.656a24.059,24.059,0,1,0,27.29,32.729L430.645,303.6a24.094,24.094,0,1,0,41.821.075L542.7,271.3a24.06,24.06,0,1,0,29.74-31.988Zm-225.786,0V128.476a24.121,24.121,0,0,0,10.868-7.408l70.523,32.807A24.031,24.031,0,0,0,446.5,182.451V211.57l-93.136,31.189A24.182,24.182,0,0,0,346.654,239.311Zm14.807,13.967L446.5,224.805v67.17a23.9,23.9,0,0,0-6.2,2.277l-77.376-36A23.92,23.92,0,0,0,361.461,253.278Zm97.584,39.353V225.583l83.561,27.736a23.557,23.557,0,0,0-1.364,4.843L462.868,294.29A23.948,23.948,0,0,0,459.045,292.631Zm0-80.268V181.8A24.026,24.026,0,0,0,475.1,153.947l71.4-32.92a24.064,24.064,0,0,0,13.393,8.1V238.656a24.011,24.011,0,0,0-9.177,4.134Zm81.92-108.11c-.025.455-.063.9-.063,1.361a24.326,24.326,0,0,0,.339,4.024l-71.881,33.143a24,24,0,0,0-10.316-6.715V89.926A24.149,24.149,0,0,0,471.1,81.069ZM432.053,81.119A24.086,24.086,0,0,0,446.5,90.582v44.835a24.018,24.018,0,0,0-12.681,7.3l-70.943-33.008a24.515,24.515,0,0,0,.361-4.1c0-.48-.044-.95-.072-1.421Z" transform="translate(-315.108 -43.002)" fill="#8c96a7" opacity="0.06"/>
</svg>
