<svg xmlns="http://www.w3.org/2000/svg" width="234.041" height="257.855" viewBox="0 0 234.041 257.855">
  <g id="shape-3" transform="translate(-656.474 -214.774)" opacity="0.04">
    <path id="Path_139" data-name="Path 139" d="M876.192,373.612c-2.117,0-2.5-.077-3.526-1.934-1.7-3.079-4.785-8.637-6.093-10.941-1.856-3.261-.257-4.49.29-5.378a14.288,14.288,0,0,0,.09-14.822c-.567-.949-2.1-2.4-.661-5.025,1.066-1.94,4.7-8.459,6.518-11.71,1.143-2.065,1.373-1.668,3.382-1.668a14.371,14.371,0,1,0-10.558-4.672c1.049,1.141,1.965,1.844.926,3.735-1.557,2.837-4.406,8.016-5.61,10.052-1.7,2.866-4.682,2.3-6.283,2.3a14.288,14.288,0,0,0-12.945,8.234,3.749,3.749,0,0,1-3.29,2.439h-5.738c-2.379,0-3.28-1.189-4.454-3.307a14.3,14.3,0,0,0-12.5-7.366c-3.453,0-3.969.245-5.217-1.9-2.851-4.906-9.08-15.629-9.741-16.887a5.428,5.428,0,0,1,.4-4.822,14.256,14.256,0,0,0,1.012-15.255c-1.359-2.483-2.195-2.931-.857-5.173.882-1.461,2.007-3.351,2.755-4.6,1.388-2.314,3.725-2,4.856-1.908a14.313,14.313,0,1,0-11.252-7.1c1.325,2.293,2.241,2.878.65,5.581-.824,1.407-1.812,3.054-2.554,4.178-1.517,2.306-4.5,1.545-6.17,1.545a14.289,14.289,0,0,0-12.974,8.3,5.438,5.438,0,0,1-4.149,2.653H753.223a4.33,4.33,0,0,1-4.3-2.855,14.287,14.287,0,0,0-12.878-8.094c-1.024,0-3.585-.744-4.365-2.138-.744-1.336-1.66-2.977-2.374-4.291a5.089,5.089,0,0,1,.646-5.717,14.265,14.265,0,0,0-.723-16.946c-.661-.815-1.618-3.275-.757-4.747,1.653-2.841,4.239-7.23,5.165-8.551a3.93,3.93,0,0,1,4.212-1.72,14.307,14.307,0,1,0-9.442-6.835c.4.69.838,2.2-.406,4.849-.817,1.743-3.641,6.346-5.487,9.3-2.051,2.1-2.728,2.358-4.44,2.358a14.3,14.3,0,0,0-12.494,7.337c-1.133,2.03-1.375,2.954-4.327,2.954H694.6a4.714,4.714,0,0,1-4.58-3.177,14.334,14.334,0,1,0-.535,13.29c1.373-2.377,1.8-3.374,4.17-3.374h7.191c3.123,0,3.566,1.626,3.863,2.4a14.3,14.3,0,0,0,13.367,9.208c1.248,0,3.276-.412,5.1,2.209a40.8,40.8,0,0,1,2.251,3.771c.9,1.678.025,4.465-.619,5.274a14.3,14.3,0,0,0-.876,16.492,5.412,5.412,0,0,1,.349,6.014c-1.146,2.138-6.329,11.049-9.114,15.825a6.382,6.382,0,0,1-5.439,2.571,14.3,14.3,0,0,0-12.546,7.437c-.759,1.382-1.3,3.236-4.747,3.236h-5.025c-2.983,0-3.715-2.69-4.444-3.875a14.317,14.317,0,1,0,.55,14.076c.891-1.714,1.348-3.466,3.894-3.466h4.344a6.035,6.035,0,0,1,5.276,3.524,14.32,14.32,0,0,0,12.7,7.707c1.363,0,3.911-.226,5.727,2.548,1.279,1.961,6.137,10.481,8.852,15.265,1.812,3.2,1.177,3.6-.362,6.028a14.247,14.247,0,0,0-.727,13.978c.587,1.177,2.207,2.759.566,5.957-.817,1.595-1.8,3.232-2.575,4.471-1.509,2.419-2.893,1.54-4.624,1.371a14.265,14.265,0,0,0-14.358,8.221,5,5,0,0,1-4.5,3.046H694.6c-2.339,0-3.923-1.959-4.839-3.685a14.326,14.326,0,1,0-.28,13.813c1.233-2.143,2.857-3.384,4.716-3.384h3.66c2.851,0,4.316,2.3,4.948,3.39a14.289,14.289,0,0,0,11.888,7.138c2.889.1,3.248.025,4.768,2.4l1.2,2.168c1.079,2.111-.012,3.238-1.743,6.235a14.338,14.338,0,1,0,12.859-7.142c-2.694-.079-4.066-.1-4.927-1.839l-1.34-2.4c-1.056-1.7-1.152-2.2.978-4.927a14.3,14.3,0,0,0,1.114-15.949c-.587-1.018-1.894-2.73-.625-5.142.682-1.3,1.787-3.138,2.667-4.563,1.148-1.852,2.458-1.2,6.4-1.2a14.292,14.292,0,0,0,12.974-8.288c.393-.844.792-2.665,3.334-2.665h20.909c1.5,0,2.989,1.831,3.384,2.68a14.307,14.307,0,0,0,12.968,8.273c.909,0,2.711-.376,3.777,1.777.529,1.07,1.589,2.972,2.513,4.6a4.846,4.846,0,0,1-.433,5.416,14.307,14.307,0,1,0,25.242,12.9,3.506,3.506,0,0,1,3.317-2.732h5.558c1.5,0,3,1.714,3.265,2.527a14.32,14.32,0,1,0,1.043-11.432c-1.034,1.883-1.678,2.168-3.744,2.168h-6.407c-3.393,0-3.7-1.67-4.158-2.441a14.291,14.291,0,0,0-12.37-7.138c-3.142,0-3.706.441-5.006-1.927-.767-1.392-1.71-3.087-2.381-4.227-1.323-2.255.1-3.846.738-4.609a14.267,14.267,0,0,0,.543-17.711c-.554-.746-2.126-1.957-.437-4.557,1.3-2,7.094-12.163,9.7-16.756.964-1.7,2.876-1.656,5.357-1.656a14.3,14.3,0,0,0,13.052-8.461c.4-.88,1.171-2.77,3.526-2.77h5.366c2.243,0,3.229,1.315,4.041,3.025a14.316,14.316,0,0,0,12.945,8.206c1.6,0,4.406-1.056,6.1,1.965,1.133,2.023,3.821,6.867,5.483,9.843,1.156,2.09.784,2.682-.828,4.53a14.173,14.173,0,0,0-3.551,9.4,14.324,14.324,0,1,0,14.325-14.32Zm-71.739-13.018c-.851,1.319-6.545,11.256-9.442,16.315-1.7,2.977-3.407,2.444-5.4,2.444a14.3,14.3,0,0,0-12.851,8.031c-.445.924-1.148,2.918-3.5,2.918H752.449c-2.278,0-2.882-1.513-3.486-2.78a14.291,14.291,0,0,0-12.918-8.169c-1.4,0-4.12.6-5.815-2.5s-8.976-15.541-8.976-15.541c-1.415-1.946-1-3.434.418-5.562a14.268,14.268,0,0,0-.315-16.2c-1.283-1.779-1.563-3.179-.418-5.211,2.7-4.78,7.88-13.928,9.243-15.93,1.867-2.732,4.461-2.567,5.863-2.567a14.3,14.3,0,0,0,12.769-7.872c.489-.968,1.286-3.079,4.948-3.079h19c1.8,0,3.535,1.942,3.965,2.843a14.291,14.291,0,0,0,12.891,8.108c1.288,0,3.963-.13,5.253,2.151.97,1.729,6.894,11.965,9.7,16.816a4.728,4.728,0,0,1-.251,4.444,14.283,14.283,0,0,0-.64,16.342C804.3,356.545,805.6,358.815,804.453,360.594Z" transform="translate(0 0)" fill="#8c96a7"/>
    <path id="Path_140" data-name="Path 140" d="M710.518,261.718a10.438,10.438,0,1,1-10.437-10.437A10.439,10.439,0,0,1,710.518,261.718Z" transform="translate(36.163 39.803)" fill="#8c96a7"/>
    <path id="Path_141" data-name="Path 141" d="M723.691,322.209a10.438,10.438,0,1,1,10.435,10.433A10.437,10.437,0,0,1,723.691,322.209Z" transform="translate(73.286 105.748)" fill="#8c96a7"/>
    <path id="Path_142" data-name="Path 142" d="M740.722,255.077a10.438,10.438,0,1,1,3.821-14.26A10.442,10.442,0,0,1,740.722,255.077Z" transform="translate(74.783 22.702)" fill="#8c96a7"/>
    <path id="Path_143" data-name="Path 143" d="M701.921,245.24a10.439,10.439,0,1,1-10.435-10.435A10.432,10.432,0,0,1,701.921,245.24Z" transform="translate(26.787 21.839)" fill="#8c96a7"/>
    <path id="Path_144" data-name="Path 144" d="M684.892,312.257a10.44,10.44,0,1,1-3.821,14.26A10.441,10.441,0,0,1,684.892,312.257Z" transform="translate(25.29 104.756)" fill="#8c96a7"/>
    <path id="Path_145" data-name="Path 145" d="M710.518,305.8a10.438,10.438,0,1,1-10.437-10.437A10.434,10.434,0,0,1,710.518,305.8Z" transform="translate(36.163 87.868)" fill="#8c96a7"/>
    <path id="Path_146" data-name="Path 146" d="M736.148,261.718a10.439,10.439,0,1,1-10.437-10.437A10.437,10.437,0,0,1,736.148,261.718Z" transform="translate(64.104 39.803)" fill="#8c96a7"/>
    <path id="Path_147" data-name="Path 147" d="M736.148,305.8a10.439,10.439,0,1,1-10.437-10.437A10.433,10.433,0,0,1,736.148,305.8Z" transform="translate(64.104 87.868)" fill="#8c96a7"/>
    <path id="Path_148" data-name="Path 148" d="M697.927,283.894a10.439,10.439,0,1,1-10.443-10.437A10.434,10.434,0,0,1,697.927,283.894Z" transform="translate(22.433 63.981)" fill="#8c96a7"/>
    <path id="Path_149" data-name="Path 149" d="M679.3,283.894a10.438,10.438,0,1,1-10.435-10.437A10.435,10.435,0,0,1,679.3,283.894Z" transform="translate(2.125 63.981)" fill="#8c96a7"/>
    <path id="Path_150" data-name="Path 150" d="M682.315,321.3a10.438,10.438,0,1,1-10.441-10.439A10.439,10.439,0,0,1,682.315,321.3Z" transform="translate(5.413 104.758)" fill="#8c96a7"/>
    <path id="Path_151" data-name="Path 151" d="M748.644,283.894A10.439,10.439,0,1,1,738.2,273.457,10.439,10.439,0,0,1,748.644,283.894Z" transform="translate(77.728 63.981)" fill="#8c96a7"/>
    <path id="Path_152" data-name="Path 152" d="M767.267,283.894a10.439,10.439,0,1,1-10.435-10.437A10.431,10.431,0,0,1,767.267,283.894Z" transform="translate(98.033 63.981)" fill="#8c96a7"/>
    <path id="Path_153" data-name="Path 153" d="M777.566,303.058a10.439,10.439,0,1,1-10.435-10.437A10.433,10.433,0,0,1,777.566,303.058Z" transform="translate(109.262 84.875)" fill="#8c96a7"/>
    <path id="Path_154" data-name="Path 154" d="M777.566,264.731a10.439,10.439,0,1,0-10.435,10.435A10.437,10.437,0,0,0,777.566,264.731Z" transform="translate(109.262 43.085)" fill="#8c96a7"/>
    <path id="Path_155" data-name="Path 155" d="M697.133,218.03a10.441,10.441,0,1,1-3.813,14.262A10.445,10.445,0,0,1,697.133,218.03Z" transform="translate(38.646 2.024)" fill="#8c96a7"/>
    <path id="Path_156" data-name="Path 156" d="M682.315,244.735A10.438,10.438,0,1,1,671.874,234.3,10.442,10.442,0,0,1,682.315,244.735Z" transform="translate(5.413 21.288)" fill="#8c96a7"/>
    <path id="Path_157" data-name="Path 157" d="M703.037,327.686a10.439,10.439,0,1,0,3.821,14.26A10.441,10.441,0,0,0,703.037,327.686Z" transform="translate(33.695 121.582)" fill="#8c96a7"/>
    <path id="Path_158" data-name="Path 158" d="M763.328,322.205a10.439,10.439,0,1,1-10.439-10.439A10.436,10.436,0,0,1,763.328,322.205Z" transform="translate(93.738 105.748)" fill="#8c96a7"/>
  </g>
</svg>
