<svg xmlns="http://www.w3.org/2000/svg" width="241.117" height="330.144" viewBox="0 0 241.117 330.144">
  <g id="shape-6" transform="translate(-429.883 -17.995)" opacity="0.06">
    <path id="Path_213" data-name="Path 213" d="M559.1,110.711a44.531,44.531,0,1,1-44.526-44.526A44.531,44.531,0,0,1,559.1,110.711Z" transform="translate(78.065 93.676)" fill="#8c96a7"/>
    <path id="Path_214" data-name="Path 214" d="M556.876,52.639A34.639,34.639,0,1,1,522.232,18,34.645,34.645,0,0,1,556.876,52.639Z" transform="translate(112.19 0)" fill="#8c96a7"/>
    <path id="Path_215" data-name="Path 215" d="M473.53,40.255a20.891,20.891,0,1,1-20.051,21.7A20.9,20.9,0,0,1,473.53,40.255Z" transform="translate(45.838 43.239)" fill="#8c96a7"/>
    <path id="Path_216" data-name="Path 216" d="M535.57,138.525a18.146,18.146,0,1,1-15.411-20.531A18.156,18.156,0,0,1,535.57,138.525Z" transform="translate(135.245 194.031)" fill="#8c96a7"/>
    <path id="Path_217" data-name="Path 217" d="M477.171,104.583a23.644,23.644,0,1,1-23.646-23.645A23.643,23.643,0,0,1,477.171,104.583Z" transform="translate(0 122.355)" fill="#8c96a7"/>
    <path id="Path_218" data-name="Path 218" d="M489.05,183.554a6.6,6.6,0,0,1-4.678-8.078l37.888-142.4a6.6,6.6,0,0,1,8.075-4.678h0a6.584,6.584,0,0,1,4.678,8.069l-37.9,142.405a6.6,6.6,0,0,1-8.066,4.681Z" transform="translate(105.488 19.791)" fill="#8c96a7"/>
    <path id="Path_219" data-name="Path 219" d="M525.992,136.752a4.441,4.441,0,0,1-6.188-1.024L462.16,55.276a4.436,4.436,0,0,1,1.019-6.182h0a4.444,4.444,0,0,1,6.191,1.024l57.641,80.454a4.427,4.427,0,0,1-1.019,6.179Z" transform="translate(61.133 58.848)" fill="#8c96a7"/>
    <path id="Path_220" data-name="Path 220" d="M491.194,90.878a4.438,4.438,0,0,1,5.9,2.123l42.215,89.506a4.426,4.426,0,0,1-2.111,5.9h0a4.435,4.435,0,0,1-5.9-2.117L489.071,96.784a4.44,4.44,0,0,1,2.123-5.905Z" transform="translate(114.231 140.858)" fill="#8c96a7"/>
    <path id="Path_221" data-name="Path 221" d="M555.635,86.249a4.8,4.8,0,0,1-4.18,5.323L445.469,104.449a4.781,4.781,0,0,1-5.325-4.174h0a4.773,4.773,0,0,1,4.169-5.314L550.3,82.078a4.792,4.792,0,0,1,5.34,4.171Z" transform="translate(19.876 124.503)" fill="#8c96a7"/>
  </g>
</svg>
