<svg id="FilledOutline" enable-background="new 0 0 64 64" height="512" viewBox="0 0 64 64" width="512" xmlns="http://www.w3.org/2000/svg"><path d="m49 51h-41c-2.761 0-5 2.239-5 5v-46c0-2.761 2.239-5 5-5h41z" fill="#454a6d"/><path d="m49 61h-41c-2.761 0-5-2.239-5-5 0-2.761 2.239-5 5-5h41z" fill="#dbd8d5"/><path d="m35 38v-9l26-26v8.059c0 6.365-2.529 12.47-7.029 16.971l-9.971 9.97z" fill="#e89d43"/><circle cx="26" cy="19" fill="#33385c" r="9"/><circle cx="26" cy="17" fill="#4ac3ed" r="3"/><path d="m26 20c-3.215 0-5.832 2.531-5.985 5.708 1.591 1.421 3.684 2.292 5.985 2.292s4.394-.871 5.985-2.292c-.153-3.177-2.77-5.708-5.985-5.708z" fill="#4ac3ed"/><g fill="#0d1030"><path d="m61.383 2.076c-.373-.154-.804-.07-1.09.217l-10.293 10.293v-7.586c0-.552-.447-1-1-1h-41c-3.309 0-6 2.691-6 6v46c0 3.309 2.691 6 6 6h41c.553 0 1-.448 1-1v-27.586l4.678-4.678c4.722-4.722 7.322-11 7.322-17.677v-8.059c0-.404-.243-.769-.617-.924zm-13.383 57.924h-40c-2.206 0-4-1.794-4-4s1.794-4 4-4h40zm0-10h-40c-1.538 0-2.937.586-4 1.54v-41.54c0-2.206 1.794-4 4-4h40v8.586l-13.707 13.707c-.188.187-.293.442-.293.707v8.586l-5.707 5.707 1.414 1.414 5.707-5.707h8.586c.266 0 .52-.105.707-.293l3.293-3.293zm12-38.941c0 6.144-2.393 11.919-6.736 16.263l-9.678 9.678h-6.172l16.293-16.293-1.414-1.414-16.293 16.293v-6.172l24-24z"/><path d="m26 29c5.514 0 10-4.486 10-10s-4.486-10-10-10-10 4.486-10 10 4.486 10 10 10zm-4.919-3.704c.346-2.439 2.41-4.296 4.919-4.296s4.573 1.857 4.919 4.296c-1.359 1.064-3.064 1.704-4.919 1.704s-3.56-.64-4.919-1.704zm2.919-8.296c0-1.103.897-2 2-2s2 .897 2 2-.897 2-2 2-2-.897-2-2zm2-6c4.411 0 8 3.589 8 8 0 1.699-.536 3.273-1.443 4.57-.639-1.734-1.942-3.132-3.595-3.906.638-.709 1.038-1.637 1.038-2.664 0-2.206-1.794-4-4-4s-4 1.794-4 4c0 1.027.4 1.955 1.038 2.664-1.653.774-2.956 2.172-3.595 3.906-.907-1.297-1.443-2.871-1.443-4.57 0-4.411 3.589-8 8-8z"/><path d="m17 43h10v2h-10z"/><path d="m17 38h13v2h-13z"/><path d="m17 33h15v2h-15z"/></g></svg>