<svg height="512" viewBox="0 0 74 74" width="512" xmlns="http://www.w3.org/2000/svg"><g id="color_line" data-name="color line"><rect fill="#9297ab" height="11.407" rx="2.366" width="54.549" x="9.726" y="11.264"/><path d="m61.909 23.171h-49.818a2.869 2.869 0 0 1 -2.866-2.866v-6.675a2.869 2.869 0 0 1 2.866-2.866h49.818a2.869 2.869 0 0 1 2.866 2.866v6.675a2.869 2.869 0 0 1 -2.866 2.866zm-49.818-11.407a1.868 1.868 0 0 0 -1.866 1.866v6.675a1.868 1.868 0 0 0 1.866 1.866h49.818a1.868 1.868 0 0 0 1.866-1.866v-6.675a1.868 1.868 0 0 0 -1.866-1.866z" fill="#323c6b"/><path d="m14.032 22.671 3 45.092a3.383 3.383 0 0 0 3.375 3.153h33.183a3.383 3.383 0 0 0 3.375-3.153l3-45.092z" fill="#bbbbcd"/><path d="m59.97 22.667-3.01 45.1a3.378 3.378 0 0 1 -3.37 3.15h-33.18a3.378 3.378 0 0 1 -3.37-3.15v-.02h32.91a3.38 3.38 0 0 0 3.38-3.15l2.79-41.93z" fill="#9297ab"/><path d="m27.022 30.335 1.225 32.836a1.629 1.629 0 0 1 -3.254.166l-1.672-32.823a1.852 1.852 0 1 1 3.7-.179z" fill="#e1e6e9"/><path d="m26.613 65.369a2.129 2.129 0 0 1 -2.12-2l-1.671-32.83a2.358 2.358 0 0 1 .637-1.75 2.351 2.351 0 0 1 4.062 1.527l1.225 32.836a2.127 2.127 0 0 1 -2.133 2.216zm-1.442-36.32a1.355 1.355 0 0 0 -1.351 1.435l1.672 32.829a1.129 1.129 0 0 0 2.255-.12l-1.225-32.839a1.35 1.35 0 0 0 -1.351-1.305z" fill="#323c6b"/><path d="m38.863 30.425-.23 32.836a1.634 1.634 0 0 1 -3.267 0l-.23-32.836a1.863 1.863 0 1 1 3.726 0z" fill="#e1e6e9"/><path d="m37 65.369a2.141 2.141 0 0 1 -2.133-2.1l-.229-32.84a2.363 2.363 0 1 1 4.726 0l-.229 32.836a2.142 2.142 0 0 1 -2.135 2.104zm0-36.32a1.371 1.371 0 0 0 -1.363 1.376l.229 32.833a1.133 1.133 0 0 0 2.267 0l.229-32.829a1.371 1.371 0 0 0 -1.362-1.38z" fill="#323c6b"/><path d="m50.679 30.514-1.672 32.823a1.628 1.628 0 0 1 -3.254-.1v-.064l1.225-32.836a1.852 1.852 0 1 1 3.7.179z" fill="#e1e6e9"/><g fill="#323c6b"><path d="m47.387 65.369a2.136 2.136 0 0 1 -2.133-2.133l1.226-32.918a2.352 2.352 0 1 1 4.7.224l-1.673 32.821a2.13 2.13 0 0 1 -2.12 2.006zm1.442-36.32a1.351 1.351 0 0 0 -1.351 1.306l-1.225 32.835a1.146 1.146 0 0 0 1.134 1.179 1.128 1.128 0 0 0 1.122-1.061l1.671-32.819a1.355 1.355 0 0 0 -1.351-1.435z"/><path d="m47.314 11.764h-20.628a.5.5 0 0 1 -.5-.5v-3.653a4.2 4.2 0 0 1 4.195-4.195h13.238a4.2 4.2 0 0 1 4.195 4.195v3.652a.5.5 0 0 1 -.5.501zm-20.128-1h19.628v-3.153a3.2 3.2 0 0 0 -3.195-3.195h-13.238a3.2 3.2 0 0 0 -3.195 3.195z"/><path d="m6.728 14.1a.5.5 0 0 1 -.5-.5 5.877 5.877 0 0 1 5.863-5.838h.971a.5.5 0 0 1 0 1h-.971a4.875 4.875 0 0 0 -4.863 4.843.5.5 0 0 1 -.5.495z"/><path d="m16.625 8.764h-1a.5.5 0 0 1 0-1h1a.5.5 0 0 1 0 1z"/><path d="m60.811 55.667h-.034a.5.5 0 0 1 -.466-.532l.04-.594a.509.509 0 0 1 .532-.466.5.5 0 0 1 .466.532l-.04.594a.5.5 0 0 1 -.498.466z"/><path d="m60.045 67.167h-.034a.5.5 0 0 1 -.466-.532l.6-9a.5.5 0 0 1 1 .066l-.6 9a.5.5 0 0 1 -.5.466z"/><path d="m53.589 71.417h-33.178a3.9 3.9 0 0 1 -3.875-3.617l-3-45.093a.5.5 0 0 1 .5-.533h45.932a.5.5 0 0 1 .5.533l-3 45.092a3.9 3.9 0 0 1 -3.879 3.618zm-39.023-48.246 2.968 44.559a2.891 2.891 0 0 0 2.876 2.686h33.179a2.891 2.891 0 0 0 2.876-2.687l2.968-44.558z"/></g><path d="m32.938 19.269a.618.618 0 0 1 .618-.618h.659a.618.618 0 1 1 0 1.237h-.659a.618.618 0 0 1 -.618-.619z" fill="#fff"/><path d="m36.042 19.269a.618.618 0 0 1 .618-.618h9.291a.618.618 0 0 1 0 1.237h-9.291a.618.618 0 0 1 -.618-.619z" fill="#fff"/></g></svg>