<?xml version="1.0" encoding="UTF-8" standalone="no"?>
<!DOCTYPE svg PUBLIC "-//W3C//DTD SVG 1.1//EN" "http://www.w3.org/Graphics/SVG/1.1/DTD/svg11.dtd">
<svg version="1.1" xmlns="http://www.w3.org/2000/svg" xmlns:xlink="http://www.w3.org/1999/xlink" preserveAspectRatio="xMidYMid meet" viewBox="294.3378553253052 236.61589445726105 53.32428934938957 72.2394499955679" width="49.32" height="68.24"><defs><path d="M296.4 238.41C294.98 239.47 294.98 241.14 296.4 242.11C299.05 244.09 312.31 253.96 336.17 271.74C312.31 289.51 299.05 299.38 296.4 301.36C294.98 302.42 294.98 304.09 296.4 305.06C297.11 305.59 298.05 305.86 298.88 305.86C299.82 305.86 300.65 305.59 301.36 305.06C305.58 301.91 339.38 276.73 343.6 273.59C344.31 273.06 344.66 272.44 344.66 271.74C344.66 271.03 344.31 270.33 343.6 269.88C335.15 263.59 305.58 241.56 301.36 238.41C299.94 237.35 297.7 237.35 296.4 238.41Z" id="a6UMmjDPyx"></path><linearGradient id="gradientbu2q9gF5Q" gradientUnits="userSpaceOnUse" x1="320" y1="237.62" x2="320" y2="305.86"><stop style="stop-color: #00efd1;stop-opacity: 1" offset="0%"></stop><stop style="stop-color: #00acea;stop-opacity: 1" offset="100%"></stop></linearGradient><path d="M296.4 238.41C294.98 239.47 294.98 241.14 296.4 242.11C299.05 244.09 312.31 253.96 336.17 271.74C312.31 289.51 299.05 299.38 296.4 301.36C294.98 302.42 294.98 304.09 296.4 305.06C297.11 305.59 298.05 305.86 298.88 305.86C299.82 305.86 300.65 305.59 301.36 305.06C305.58 301.91 339.38 276.73 343.6 273.59C344.31 273.06 344.66 272.44 344.66 271.74C344.66 271.03 344.31 270.33 343.6 269.88C335.15 263.59 305.58 241.56 301.36 238.41C299.94 237.35 297.7 237.35 296.4 238.41Z" id="b97exc8eR"></path></defs><g><g><use xlink:href="#a6UMmjDPyx" opacity="1" fill="url(#gradientbu2q9gF5Q)"></use><g><use xlink:href="#a6UMmjDPyx" opacity="1" fill-opacity="0" stroke="#000000" stroke-width="1" stroke-opacity="0"></use></g></g><g><use xlink:href="#b97exc8eR" opacity="1" fill="#79c8b6" fill-opacity="1"></use><g><use xlink:href="#b97exc8eR" opacity="1" fill-opacity="0" stroke="#000000" stroke-width="1" stroke-opacity="0"></use></g></g></g></svg>