<?xml version="1.0" encoding="UTF-8" standalone="no"?>
<!DOCTYPE svg PUBLIC "-//W3C//DTD SVG 1.1//EN" "http://www.w3.org/Graphics/SVG/1.1/DTD/svg11.dtd">
<svg version="1.1" xmlns="http://www.w3.org/2000/svg" xmlns:xlink="http://www.w3.org/1999/xlink" preserveAspectRatio="xMidYMid meet" viewBox="89.5797101449275 76.95652173913044 396 334" width="40" height="33.67"><defs><path d="M90.58 407.96L286.58 407.96L331.58 363.46L286.58 317.96L90.58 317.96L90.58 407.96Z" id="c2A6Tp1rcy"></path><path d="M482.58 407.96L286.58 407.96L286.58 317.96L482.58 317.96L482.58 407.96Z" id="a2AJopxmM"></path><path d="M90.58 287.96L286.58 287.96L331.58 243.46L286.58 197.96L90.58 197.96L90.58 287.96Z" id="jJ5vprmdm"></path><path d="M286.58 287.96L286.58 197.96L482.58 197.96C482.58 243.22 482.58 271.52 482.58 282.83C482.58 285.66 480.29 287.96 477.46 287.96C452.01 287.96 388.38 287.96 286.58 287.96Z" id="bSBRZMYxw"></path><path d="M90.58 167.96L286.58 167.96L331.58 123.46L286.58 77.96L90.58 77.96L90.58 167.96Z" id="cDgJUmzQK"></path><path d="M482.58 167.96L286.58 167.96L286.58 77.96L482.58 77.96L482.58 167.96Z" id="c4kyXT3MOV"></path></defs><g><g><use xlink:href="#c2A6Tp1rcy" opacity="1" fill="#8bccbd" fill-opacity="1"></use><g><use xlink:href="#c2A6Tp1rcy" opacity="1" fill-opacity="0" stroke="#000000" stroke-width="1" stroke-opacity="0"></use></g></g><g><use xlink:href="#a2AJopxmM" opacity="1" fill="#8bccbd" fill-opacity="1"></use><g><use xlink:href="#a2AJopxmM" opacity="1" fill-opacity="0" stroke="#000000" stroke-width="1" stroke-opacity="0"></use></g></g><g><use xlink:href="#jJ5vprmdm" opacity="1" fill="#8bccbd" fill-opacity="1"></use><g><use xlink:href="#jJ5vprmdm" opacity="1" fill-opacity="0" stroke="#000000" stroke-width="1" stroke-opacity="0"></use></g></g><g><use xlink:href="#bSBRZMYxw" opacity="1" fill="#8bccbd" fill-opacity="1"></use><g><use xlink:href="#bSBRZMYxw" opacity="1" fill-opacity="0" stroke="#000000" stroke-width="1" stroke-opacity="0"></use></g></g><g><use xlink:href="#cDgJUmzQK" opacity="1" fill="#8bccbd" fill-opacity="1"></use><g><use xlink:href="#cDgJUmzQK" opacity="1" fill-opacity="0" stroke="#000000" stroke-width="1" stroke-opacity="0"></use></g></g><g><use xlink:href="#c4kyXT3MOV" opacity="1" fill="#8bccbd" fill-opacity="1"></use><g><use xlink:href="#c4kyXT3MOV" opacity="1" fill-opacity="0" stroke="#000000" stroke-width="1" stroke-opacity="0"></use></g></g></g></svg>