<?xml version="1.0" encoding="UTF-8" standalone="no"?>
<!DOCTYPE svg PUBLIC "-//W3C//DTD SVG 1.1//EN" "http://www.w3.org/Graphics/SVG/1.1/DTD/svg11.dtd">
<svg version="1.1" xmlns="http://www.w3.org/2000/svg" xmlns:xlink="http://www.w3.org/1999/xlink" preserveAspectRatio="xMidYMid meet" viewBox="8.301562500000001 152.43374999999992 634.6979687972298 337.13375000000025" width="30" height="15.85"><defs><path d="M622.85 300.86C633.32 311.49 633.32 328.51 622.85 339.14C569.81 393.04 456.42 477.19 320 477.19C183.58 477.19 70.19 393.04 17.15 339.14C6.69 328.51 6.69 311.49 17.15 300.86C70.19 246.95 183.58 162.81 320 162.81C456.42 162.81 569.81 246.95 622.85 300.86Z" id="i3BL1brCE1"></path><path d="M320 162.81C233.19 162.81 162.81 233.19 162.81 320C162.81 406.81 233.19 477.19 320 477.19C406.81 477.19 477.19 406.81 477.19 320C477.19 233.19 406.81 162.81 320 162.81Z" id="b2jqumvRz"></path><path d="M162.81 320C162.81 406.81 233.19 477.19 320 477.19C357.5 477.19 391.92 464.05 418.94 442.14C180 500.15 162.81 270.89 238.67 185.46C193.2 213 162.81 262.95 162.81 320Z" id="a2MgA7CLvA"></path><path d="M320 242.99C277.47 242.99 242.99 277.47 242.99 320C242.99 362.53 277.47 397.01 320 397.01C362.53 397.01 397.01 362.53 397.01 320C397.01 277.47 362.53 242.99 320 242.99Z" id="e92WvFm1A"></path><path d="M395.5 242.43C375.41 242.43 359.12 258.72 359.12 278.8C359.12 298.89 375.41 315.17 395.5 315.17C415.58 315.17 431.87 298.89 431.87 278.8C431.87 258.72 415.58 242.43 395.5 242.43Z" id="a1w5G0oFG"></path><path d="M320 194.98C446.75 194.98 564.56 262.76 617.31 295.34C562.19 241.41 451.85 162.81 320 162.81C188.15 162.81 77.81 241.41 22.69 295.34C75.45 262.76 193.25 194.98 320 194.98Z" id="a1KyfhUYvb"></path><path d="M410.85 405.98C409.73 405.07 400.85 397.84 399.74 396.94C395.72 393.67 395.11 387.77 398.38 383.75C401.65 379.73 407.55 379.12 411.57 382.39C412.68 383.29 421.57 390.52 422.68 391.43C426.7 394.7 427.3 400.6 424.04 404.62C422.18 406.9 419.48 408.08 416.76 408.08C414.68 408.08 412.58 407.39 410.85 405.98Z" id="g29Y0EBNIW"></path><path d="M436.57 365.35C435.2 364.93 424.24 361.59 422.87 361.17C417.92 359.66 415.13 354.42 416.64 349.47C418.15 344.51 423.39 341.72 428.34 343.23C429.71 343.65 440.67 346.99 442.04 347.41C446.99 348.92 449.78 354.16 448.27 359.11C447.04 363.15 443.33 365.76 439.31 365.76C438.4 365.76 437.48 365.62 436.57 365.35Z" id="clDXbPlPH"></path><path d="M307.66 453.53C302.5 453.06 298.71 448.49 299.18 443.33C299.31 441.91 300.37 430.5 300.5 429.07C300.98 423.92 305.54 420.13 310.7 420.6C315.86 421.07 319.65 425.64 319.17 430.8C319.04 432.22 317.99 443.63 317.86 445.06C317.41 449.92 313.32 453.57 308.53 453.57C308.24 453.57 307.95 453.56 307.66 453.53Z" id="bJVPi0mCj"></path><path d="M190.1 353.31C188.81 348.29 191.83 343.18 196.85 341.89C198.24 341.54 209.34 338.69 210.72 338.34C215.74 337.05 220.85 340.07 222.13 345.09C223.42 350.11 220.4 355.22 215.38 356.5C213.99 356.86 202.89 359.7 201.51 360.06C200.73 360.26 199.95 360.36 199.17 360.36C194.99 360.36 191.18 357.54 190.1 353.31Z" id="b3kceEPMP7"></path><path d="M253.27 231.54C252.5 230.33 246.4 220.64 245.64 219.42C242.88 215.04 244.2 209.25 248.58 206.49C252.96 203.74 258.76 205.05 261.51 209.44C262.28 210.65 268.38 220.35 269.14 221.56C271.9 225.94 270.58 231.73 266.2 234.49C264.65 235.46 262.92 235.93 261.21 235.93C258.1 235.93 255.05 234.38 253.27 231.54Z" id="a2eoOf4tCj"></path><path d="M366.78 230.45C362.19 228.05 360.41 222.39 362.81 217.8C363.47 216.53 368.77 206.37 369.44 205.11C371.83 200.51 377.5 198.74 382.09 201.13C386.68 203.53 388.46 209.2 386.06 213.79C385.4 215.06 380.09 225.21 379.43 226.48C377.76 229.68 374.49 231.52 371.11 231.52C369.65 231.52 368.16 231.18 366.78 230.45Z" id="bnaDgvhfM"></path><path d="M619.81 284.71C616.06 281.14 610.13 281.28 606.55 285.03C602.98 288.77 603.12 294.71 606.87 298.28C610.06 301.33 613.18 304.4 616.16 307.43C622.98 314.36 622.98 325.64 616.16 332.57C597.11 351.93 556.47 389.05 498.28 420.11C472.56 433.84 446.72 444.62 420.89 452.44C460.78 421.98 486.57 373.95 486.57 320C486.57 266.16 460.88 218.21 421.12 187.74C488.84 208.34 542.93 245 574.39 270.04C578.44 273.27 584.34 272.59 587.56 268.54C590.79 264.49 590.12 258.59 586.07 255.37C538.23 217.3 440.06 153.43 320 153.43C257.89 153.43 194.94 170.23 132.89 203.35C72.5 235.58 30.27 274.16 10.47 294.28C-3.49 308.46 -3.49 331.54 10.47 345.72C22.52 357.97 42.63 376.8 70 396.93C71.67 398.16 73.62 398.76 75.55 398.76C78.43 398.76 81.27 397.43 83.11 394.93C86.18 390.76 85.28 384.89 81.11 381.82C54.73 362.42 35.4 344.33 23.83 332.57C17.01 325.64 17.01 314.37 23.83 307.44C42.88 288.07 83.53 250.96 141.72 219.89C167.43 206.17 193.27 195.38 219.11 187.56C179.22 218.02 153.43 266.05 153.43 320C153.43 373.81 179.09 421.74 218.8 452.21C184.44 441.79 150.15 426.25 116.88 405.88C112.47 403.18 106.69 404.56 103.99 408.98C101.28 413.4 102.67 419.17 107.09 421.88C176.2 464.2 249.83 486.57 320 486.57C382.11 486.57 445.06 469.77 507.11 436.65C567.5 404.42 609.73 365.84 629.53 345.72C643.49 331.54 643.49 308.46 629.53 294.28C626.41 291.11 623.14 287.89 619.81 284.71ZM320 172.19C401.51 172.19 467.82 238.5 467.82 320C467.82 401.5 401.51 467.81 320 467.81C238.49 467.81 172.19 401.5 172.19 320C172.19 238.49 238.5 172.19 320 172.19ZM395.5 233.06C383.3 233.06 372.22 237.87 364.01 245.67C350.72 237.77 335.67 233.61 320 233.61C272.37 233.61 233.61 272.36 233.61 320C233.61 367.63 272.37 406.38 320 406.38C366.55 406.38 404.59 369.38 406.31 323.24C426.33 318.37 441.24 300.3 441.24 278.8C441.24 253.58 420.72 233.06 395.5 233.06ZM252.37 320C252.37 282.71 282.71 252.37 320 252.37C331.82 252.37 343.19 255.38 353.31 261.13C351.02 266.57 349.75 272.54 349.75 278.81C349.75 301.31 366.09 320.05 387.52 323.84C385.52 359.35 356.01 387.63 320 387.63C282.71 387.63 252.37 357.29 252.37 320ZM368.51 278.8C368.51 263.92 380.62 251.82 395.5 251.82C410.38 251.82 422.48 263.92 422.48 278.8C422.48 293.69 410.38 305.79 395.5 305.79C380.62 305.79 368.51 293.69 368.51 278.8Z" id="b1lAKSNOgK"></path></defs><g><g><use xlink:href="#i3BL1brCE1" opacity="1" fill="#d1eff2" fill-opacity="1"></use><g><use xlink:href="#i3BL1brCE1" opacity="1" fill-opacity="0" stroke="#000000" stroke-width="1" stroke-opacity="0"></use></g></g><g><use xlink:href="#b2jqumvRz" opacity="1" fill="#76b7eb" fill-opacity="1"></use><g><use xlink:href="#b2jqumvRz" opacity="1" fill-opacity="0" stroke="#000000" stroke-width="1" stroke-opacity="0"></use></g></g><g><use xlink:href="#a2MgA7CLvA" opacity="1" fill="#000000" fill-opacity="1"></use><g><use xlink:href="#a2MgA7CLvA" opacity="1" fill-opacity="0" stroke="#000000" stroke-width="1" stroke-opacity="0"></use></g></g><g><use xlink:href="#e92WvFm1A" opacity="1" fill="#38648c" fill-opacity="1"></use><g><use xlink:href="#e92WvFm1A" opacity="1" fill-opacity="0" stroke="#000000" stroke-width="1" stroke-opacity="0"></use></g></g><g><use xlink:href="#a1w5G0oFG" opacity="1" fill="#ffffff" fill-opacity="1"></use><g><use xlink:href="#a1w5G0oFG" opacity="1" fill-opacity="0" stroke="#000000" stroke-width="1" stroke-opacity="0"></use></g></g><g><use xlink:href="#a1KyfhUYvb" opacity="1" fill="#000000" fill-opacity="1"></use><g><use xlink:href="#a1KyfhUYvb" opacity="1" fill-opacity="0" stroke="#000000" stroke-width="1" stroke-opacity="0"></use></g></g><g><use xlink:href="#g29Y0EBNIW" opacity="1" fill="#000000" fill-opacity="1"></use><g><use xlink:href="#g29Y0EBNIW" opacity="1" fill-opacity="0" stroke="#000000" stroke-width="1" stroke-opacity="0"></use></g></g><g><use xlink:href="#clDXbPlPH" opacity="1" fill="#000000" fill-opacity="1"></use><g><use xlink:href="#clDXbPlPH" opacity="1" fill-opacity="0" stroke="#000000" stroke-width="1" stroke-opacity="0"></use></g></g><g><use xlink:href="#bJVPi0mCj" opacity="1" fill="#000000" fill-opacity="1"></use><g><use xlink:href="#bJVPi0mCj" opacity="1" fill-opacity="0" stroke="#000000" stroke-width="1" stroke-opacity="0"></use></g></g><g><use xlink:href="#b3kceEPMP7" opacity="1" fill="#000000" fill-opacity="1"></use><g><use xlink:href="#b3kceEPMP7" opacity="1" fill-opacity="0" stroke="#000000" stroke-width="1" stroke-opacity="0"></use></g></g><g><use xlink:href="#a2eoOf4tCj" opacity="1" fill="#000000" fill-opacity="1"></use><g><use xlink:href="#a2eoOf4tCj" opacity="1" fill-opacity="0" stroke="#000000" stroke-width="1" stroke-opacity="0"></use></g></g><g><use xlink:href="#bnaDgvhfM" opacity="1" fill="#000000" fill-opacity="1"></use><g><use xlink:href="#bnaDgvhfM" opacity="1" fill-opacity="0" stroke="#000000" stroke-width="1" stroke-opacity="0"></use></g></g><g><use xlink:href="#b1lAKSNOgK" opacity="1" fill="#000000" fill-opacity="1"></use><g><use xlink:href="#b1lAKSNOgK" opacity="1" fill-opacity="0" stroke="#000000" stroke-width="1" stroke-opacity="0"></use></g></g></g></svg>