<?xml version="1.0" encoding="UTF-8" standalone="no"?>
<!DOCTYPE svg PUBLIC "-//W3C//DTD SVG 1.1//EN" "http://www.w3.org/Graphics/SVG/1.1/DTD/svg11.dtd">
<svg version="1.1" xmlns="http://www.w3.org/2000/svg" xmlns:xlink="http://www.w3.org/1999/xlink" preserveAspectRatio="xMidYMid meet" viewBox="15 15.000280261061135 484 483.9997197389389" width="40" height="40"><defs><path d="M482.34 18.34C476.85 23.83 449.41 51.28 400 100.69C400 64.28 400 44.05 400 40C400 35.58 396.42 32 392 32C359.2 32 96.8 32 64 32C37.53 32 16 53.53 16 80C16 116.8 16 411.2 16 448C16 474.47 37.53 496 64 496C96.8 496 359.2 496 392 496C396.42 496 400 492.42 400 488C400 473.29 400 399.72 400 267.31C422.45 244.86 434.93 232.38 437.42 229.89C475.2 192.11 496 141.89 496 88.47C496 82.02 496 30.45 496 24C496 20.77 494.06 17.85 491.06 16.61C488.08 15.38 484.63 16.05 482.34 18.34ZM384 480C192 480 85.33 480 64 480C46.35 480 32 465.65 32 448C32 430.35 46.35 416 64 416C85.33 416 192 416 384 416L384 480ZM384 400C192 400 85.33 400 64 400C51.7 400 40.5 404.69 32 412.32C32 379.09 32 113.23 32 80C32 62.35 46.35 48 64 48C85.33 48 192 48 384 48L384 116.69C318.21 182.48 281.65 219.03 274.34 226.34C272.84 227.84 272 229.88 272 232C272 236.58 272 259.48 272 300.69L226.34 346.34L237.66 357.66L283.31 312C324.52 312 347.42 312 352 312C354.13 312 356.16 311.16 357.66 309.66C359.41 307.9 368.19 299.12 384 283.31L384 400ZM480 88.47C480 137.62 460.86 183.82 426.11 218.58C420.95 223.74 395.14 249.55 348.69 296L299.31 296L429.66 165.66L418.34 154.34L288 284.69L288 235.31L480 43.31C480 67.4 480 82.45 480 88.47Z" id="f3bfjYS29O"></path><path d="M288 152C288 107.89 252.11 72 208 72C163.89 72 128 107.89 128 152C128 196.11 163.89 232 208 232C252.11 232 288 196.11 288 152ZM208 168C228.07 168 244.58 182.86 247.35 202.37C236.48 210.88 222.84 216 208 216C193.16 216 179.52 210.88 168.65 202.37C171.42 182.86 187.93 168 208 168ZM208 120C216.82 120 224 127.18 224 136C224 144.82 216.82 152 208 152C199.18 152 192 144.82 192 136C192 127.18 199.18 120 208 120ZM272 152C272 165.59 267.71 178.18 260.46 188.56C255.34 174.69 244.92 163.5 231.7 157.31C236.8 151.64 240 144.22 240 136C240 118.35 225.65 104 208 104C190.35 104 176 118.35 176 136C176 144.22 179.2 151.64 184.3 157.31C171.08 163.5 160.66 174.69 155.54 188.56C148.29 178.18 144 165.59 144 152C144 116.71 172.71 88 208 88C243.29 88 272 116.71 272 152Z" id="b2Aomz7hBT"></path><path d="M136 344L216 344L216 360L136 360L136 344Z" id="f5sCFUu7M7"></path><path d="M136 304L240 304L240 320L136 320L136 304Z" id="aDbuT3qQ4"></path><path d="M136 264L256 264L256 280L136 280L136 264Z" id="ggz6qKU8T"></path></defs><g><g><use xlink:href="#f3bfjYS29O" opacity="1" fill="#0d1030" fill-opacity="1"></use><g><use xlink:href="#f3bfjYS29O" opacity="1" fill-opacity="0" stroke="#000000" stroke-width="1" stroke-opacity="0"></use></g></g><g><use xlink:href="#b2Aomz7hBT" opacity="1" fill="#0d1030" fill-opacity="1"></use><g><use xlink:href="#b2Aomz7hBT" opacity="1" fill-opacity="0" stroke="#000000" stroke-width="1" stroke-opacity="0"></use></g></g><g><use xlink:href="#f5sCFUu7M7" opacity="1" fill="#0d1030" fill-opacity="1"></use><g><use xlink:href="#f5sCFUu7M7" opacity="1" fill-opacity="0" stroke="#000000" stroke-width="1" stroke-opacity="0"></use></g></g><g><use xlink:href="#aDbuT3qQ4" opacity="1" fill="#0d1030" fill-opacity="1"></use><g><use xlink:href="#aDbuT3qQ4" opacity="1" fill-opacity="0" stroke="#000000" stroke-width="1" stroke-opacity="0"></use></g></g><g><use xlink:href="#ggz6qKU8T" opacity="1" fill="#0d1030" fill-opacity="1"></use><g><use xlink:href="#ggz6qKU8T" opacity="1" fill-opacity="0" stroke="#000000" stroke-width="1" stroke-opacity="0"></use></g></g></g></svg>