<?xml version="1.0" encoding="UTF-8" standalone="no"?>
<!DOCTYPE svg PUBLIC "-//W3C//DTD SVG 1.1//EN" "http://www.w3.org/Graphics/SVG/1.1/DTD/svg11.dtd">
<svg version="1.1" xmlns="http://www.w3.org/2000/svg" xmlns:xlink="http://www.w3.org/1999/xlink" preserveAspectRatio="xMidYMid meet" viewBox="26.97265625 -1 629.1649319179687 686" width="40" height="43.64"><defs><path d="M440.01 106.56C440.01 47.8 487.84 0 546.58 0C605.31 0 653.14 47.8 653.14 106.56C653.14 165.33 605.31 213.13 546.58 213.13C487.84 213.13 440.01 165.33 440.01 106.56ZM482.64 106.56C482.64 141.83 511.34 170.5 546.58 170.5C581.81 170.5 610.51 141.83 610.51 106.56C610.51 71.29 581.81 42.63 546.58 42.63C511.34 42.63 482.64 71.29 482.64 106.56Z" id="c5gZz2X0UY"></path><path d="M440.01 575.44C440.01 516.67 487.84 468.88 546.58 468.88C605.31 468.88 653.14 516.67 653.14 575.44C653.14 634.2 605.31 682 546.58 682C487.84 682 440.01 634.2 440.01 575.44ZM482.64 575.44C482.64 610.71 511.34 639.38 546.58 639.38C581.81 639.38 610.51 610.71 610.51 575.44C610.51 540.17 581.81 511.5 546.58 511.5C511.34 511.5 482.64 540.17 482.64 575.44Z" id="a3uJHcNQDh"></path><path d="M27.97 341C27.97 282.23 75.8 234.44 134.54 234.44C193.27 234.44 241.1 282.23 241.1 341C241.1 399.77 193.27 447.56 134.54 447.56C75.8 447.56 27.97 399.77 27.97 341ZM70.6 341C70.6 376.27 99.3 404.94 134.54 404.94C169.77 404.94 198.47 376.27 198.47 341C198.47 305.73 169.77 277.06 134.54 277.06C99.3 277.06 70.6 305.73 70.6 341Z" id="b5BvWMHgGl"></path><path d="M190.2 309.52C184.38 299.29 187.93 286.27 198.16 280.44C224.53 265.41 435.47 145.15 461.84 130.12C472.04 124.24 485.08 127.82 490.88 138.08C496.71 148.31 493.15 161.32 482.92 167.15C456.56 182.18 245.61 302.44 219.24 317.47C215.92 319.34 212.31 320.25 208.73 320.25C201.31 320.25 194.1 316.39 190.2 309.52Z" id="fiwcLKbWp"></path><path d="M461.87 551.88C435.5 536.85 224.55 416.59 198.19 401.56C187.96 395.73 184.41 382.71 190.23 372.48C196.03 362.23 209.05 358.68 219.28 364.53C245.64 379.56 456.58 499.82 482.95 514.85C493.18 520.68 496.73 533.69 490.91 543.92C486.99 550.83 479.77 554.69 472.38 554.69C468.8 554.69 465.19 553.78 461.87 551.88Z" id="c16EEOMzTG"></path></defs><g><g><use xlink:href="#c5gZz2X0UY" opacity="1" fill="#000000" fill-opacity="1"></use><g><use xlink:href="#c5gZz2X0UY" opacity="1" fill-opacity="0" stroke="#000000" stroke-width="1" stroke-opacity="0"></use></g></g><g><use xlink:href="#a3uJHcNQDh" opacity="1" fill="#000000" fill-opacity="1"></use><g><use xlink:href="#a3uJHcNQDh" opacity="1" fill-opacity="0" stroke="#000000" stroke-width="1" stroke-opacity="0"></use></g></g><g><use xlink:href="#b5BvWMHgGl" opacity="1" fill="#000000" fill-opacity="1"></use><g><use xlink:href="#b5BvWMHgGl" opacity="1" fill-opacity="0" stroke="#000000" stroke-width="1" stroke-opacity="0"></use></g></g><g><use xlink:href="#fiwcLKbWp" opacity="1" fill="#000000" fill-opacity="1"></use><g><use xlink:href="#fiwcLKbWp" opacity="1" fill-opacity="0" stroke="#000000" stroke-width="1" stroke-opacity="0"></use></g></g><g><use xlink:href="#c16EEOMzTG" opacity="1" fill="#000000" fill-opacity="1"></use><g><use xlink:href="#c16EEOMzTG" opacity="1" fill-opacity="0" stroke="#000000" stroke-width="1" stroke-opacity="0"></use></g></g></g></svg>