<?xml version="1.0" encoding="UTF-8" standalone="no"?>
<!DOCTYPE svg PUBLIC "-//W3C//DTD SVG 1.1//EN" "http://www.w3.org/Graphics/SVG/1.1/DTD/svg11.dtd">
<svg version="1.1" xmlns="http://www.w3.org/2000/svg" xmlns:xlink="http://www.w3.org/1999/xlink" preserveAspectRatio="xMidYMid meet" viewBox="100.14122137404581 50.14503816793899 515 516" width="30" height="30.06"><defs><path d="M167.14 125.15L180.64 113.65C353.44 113.65 449.44 113.65 468.64 113.65C479.69 113.65 488.64 122.6 488.64 133.65C488.64 173.75 488.64 494.55 488.64 534.65C488.64 545.69 478.19 551.15 467.14 551.15C447.07 550.95 346.74 549.95 166.14 548.15L167.14 125.15Z" id="bODiGLMfB"></path><path d="M488.64 534.65C488.64 545.7 479.69 554.65 468.64 554.65C448.11 554.65 345.44 554.65 160.64 554.65L135.14 345.15L160.64 113.65L180.64 113.65C180.64 360.85 180.64 498.18 180.64 525.65C180.64 530.62 184.67 534.65 189.64 534.65C249.44 534.65 428.84 534.65 488.64 534.65Z" id="b1yT4x3rzt"></path><path d="M160.14 551.15C145.44 550.25 137.27 549.75 135.64 549.65C124.6 549.65 115.64 540.69 115.64 529.65C115.29 490.3 112.49 175.5 112.14 136.15C112.14 125.1 118.6 113.65 129.64 113.65C131.71 113.65 142.04 113.65 160.64 113.65L160.64 534.65L156.14 542.15L160.14 551.15Z" id="o5FQ9UQQm"></path><path d="M160.64 534.65L160.64 554.65C142.04 554.65 131.71 554.65 129.64 554.65C118.6 554.65 109.64 545.69 109.64 534.65C109.64 494.55 109.64 173.75 109.64 133.65C109.64 122.6 118.59 113.65 129.64 113.65C129.64 155.05 129.64 486.25 129.64 527.65C129.64 531.51 132.78 534.65 136.64 534.65C139.84 534.65 147.84 534.65 160.64 534.65Z" id="b21HA84f9"></path><path d="M261.88 204.76C260.47 204.06 258.81 204.06 257.41 204.76C256.02 205.46 249.1 208.92 236.64 215.15C232.86 213.8 230.76 213.05 230.34 212.91C227.01 214.57 223.1 212.15 223.1 208.43C223.28 199.45 224.71 127.62 224.89 118.65C224.89 107.6 228.14 96.61 239.18 96.61C239.98 96.48 243.98 95.83 251.18 94.65C268.26 94.65 277.74 94.65 279.64 94.65C290.69 94.65 299.64 103.6 299.64 114.65C299.64 124.74 299.64 205.47 299.64 215.56C299.64 219.27 295.73 221.69 292.41 220.03C286.3 216.97 264.93 206.29 261.88 204.76Z" id="b20Y2uzBtl"></path><path d="M256.64 94.65C245.59 94.65 236.64 103.6 236.64 114.65C236.64 121.35 236.64 154.85 236.64 215.15C230.79 218.07 227.53 219.7 226.88 220.03C223.55 221.69 219.64 219.28 219.64 215.56C219.64 205.46 219.64 124.74 219.64 114.65C219.64 103.6 228.59 94.65 239.64 94.65C243.04 94.65 253.24 94.65 256.64 94.65Z" id="c48DznANwG"></path><path d="M432.64 319.65C438.16 319.65 442.64 324.12 442.64 329.65C442.64 330.65 442.64 338.65 442.64 339.65C442.64 345.17 438.16 349.65 432.64 349.65C410.84 349.65 236.44 349.65 214.64 349.65C209.12 349.65 204.64 345.17 204.64 339.65C204.64 338.65 204.64 330.65 204.64 329.65C204.64 324.12 209.12 319.65 214.64 319.65C258.24 319.65 410.84 319.65 432.64 319.65Z" id="h9awbAK0j"></path><path d="M303.14 494.74C292.1 494.74 283.14 485.79 283.14 474.74C283.33 435.75 284.86 123.86 285.06 84.87C285.06 73.82 285.6 58.65 296.64 58.65C325.44 58.65 555.84 58.65 584.64 58.65C595.69 58.65 604.64 67.6 604.64 78.65C604.64 118.75 604.64 439.55 604.64 479.65C604.64 490.69 588.69 494.74 577.64 494.74C522.74 494.74 330.59 494.74 303.14 494.74Z" id="alDOG2EUD"></path><path d="M604.64 479.65C604.64 490.7 595.69 499.65 584.64 499.65C555.84 499.65 325.44 499.65 296.64 499.65C285.6 499.65 276.64 490.69 276.64 479.65C276.64 439.55 276.64 118.75 276.64 78.65C276.64 67.6 285.59 58.65 296.64 58.65C296.64 99.75 296.64 428.55 296.64 469.65C296.64 475.17 301.12 479.65 306.64 479.65C366.24 479.65 545.04 479.65 604.64 479.65Z" id="ha3LpTW4a"></path><path d="M346.64 91.65C462.44 91.65 526.77 91.65 539.64 91.65C545.16 91.65 549.64 96.12 549.64 101.65C549.64 101.98 549.64 103.65 549.64 106.65C545.51 109.2 543.22 110.63 542.76 110.91C542.76 116.43 541.39 118.06 535.86 118.06C516.97 118.12 365.86 118.59 346.97 118.65C341.45 118.65 336.97 114.17 336.97 108.65C336.7 108.08 334.52 103.56 334.25 103C334.25 97.47 338.73 93 344.25 93C344.57 92.82 345.36 92.37 346.64 91.65Z" id="dFawUHuIE"></path><path d="M549.64 106.65C549.64 109.65 549.64 111.31 549.64 111.65C549.64 117.17 545.16 121.65 539.64 121.65C519.84 121.65 361.44 121.65 341.64 121.65C336.12 121.65 331.64 117.17 331.64 111.65C331.64 110.65 331.64 102.65 331.64 101.65C331.64 96.13 336.12 91.65 341.64 91.65C341.97 91.65 343.64 91.65 346.64 91.65C346.64 97.05 346.64 100.05 346.64 100.65C346.64 103.96 349.33 106.65 352.64 106.65C378.91 106.65 444.57 106.65 549.64 106.65Z" id="g2r6RWSZng"></path><path d="M556.22 439.73C557.63 439.35 559.11 439.15 560.64 439.15C570.03 439.15 577.64 446.76 577.64 456.15C577.64 457.32 577.52 458.46 577.3 459.57C575.71 467.32 569.61 469.38 561.4 469.38C552.01 469.38 546.59 466.39 546.59 457C546.59 449.14 548.98 441.67 556.22 439.73Z" id="a2Svvb2hhG"></path><path d="M560.64 473.15C551.25 473.15 543.64 465.54 543.64 456.15C543.64 448.29 548.97 441.68 556.22 439.73C555.84 441.14 555.64 442.62 555.64 444.15C555.64 453.54 563.25 461.15 572.64 461.15C574.17 461.15 575.65 460.95 577.06 460.57C575.11 467.82 568.5 473.15 560.64 473.15Z" id="c2ms3pbinp"></path><path d="M282.64 520.65C278.5 520.65 275.14 524 275.14 528.15C275.14 532.29 278.5 535.65 282.64 535.65C290.84 535.65 356.44 535.65 364.64 535.65C368.78 535.65 372.14 532.29 372.14 528.15C372.14 524 368.78 520.65 364.64 520.65C348.24 520.65 299.04 520.65 282.64 520.65Z" id="eah2GgyVD"></path><path d="M296.64 51.15C281.48 51.15 269.14 63.48 269.14 78.65C269.14 79.21 269.14 82.05 269.14 87.15C251.44 87.15 241.61 87.15 239.64 87.15C227.08 87.15 216.46 95.62 213.19 107.15C193.55 107.15 147.54 107.15 128.64 107.15C113.48 107.15 101.14 119.48 101.14 134.65C101.14 174.75 101.14 495.55 101.14 535.65C101.14 550.81 113.48 563.15 128.64 563.15C162.54 563.15 433.74 563.15 467.64 563.15C482.8 563.15 495.14 550.81 495.14 535.65C495.14 533.75 495.14 524.25 495.14 507.15C548.84 507.15 578.67 507.15 584.64 507.15C599.8 507.15 612.14 494.81 612.14 479.65C612.14 439.55 612.14 118.75 612.14 78.65C612.14 63.48 599.8 51.15 584.64 51.15C527.04 51.15 325.44 51.15 296.64 51.15ZM269.14 342.15C236.44 342.15 218.27 342.15 214.64 342.15C213.26 342.15 212.14 341.02 212.14 339.65C212.14 338.65 212.14 330.65 212.14 329.65C212.14 328.27 213.26 327.15 214.64 327.15C218.27 327.15 236.44 327.15 269.14 327.15L269.14 342.15ZM597.14 479.65C597.14 486.54 591.53 492.15 584.64 492.15C563.59 492.15 395.19 492.15 374.14 492.15C370 492.15 366.64 495.5 366.64 499.65C366.64 503.79 370 507.15 374.14 507.15C381.21 507.15 416.54 507.15 480.14 507.15C480.14 524.25 480.14 533.75 480.14 535.65C480.14 542.54 474.53 548.15 467.64 548.15C447.61 548.15 347.44 548.15 167.14 548.15C167.14 493.25 167.14 462.75 167.14 456.65C167.14 452.5 163.78 449.15 159.64 449.15C155.5 449.15 152.14 452.5 152.14 456.65C152.14 462.75 152.14 493.25 152.14 548.15C138.04 548.15 130.21 548.15 128.64 548.15C121.75 548.15 116.14 542.54 116.14 535.65C116.14 495.55 116.14 174.75 116.14 134.65C116.14 127.75 121.75 122.15 128.64 122.15C130.21 122.15 138.04 122.15 152.14 122.15C152.14 301.85 152.14 401.68 152.14 421.65C152.14 425.79 155.5 429.15 159.64 429.15C163.78 429.15 167.14 425.79 167.14 421.65C167.14 401.68 167.14 301.85 167.14 122.15L212.14 122.15C212.14 134.59 212.14 141.5 212.14 142.89C212.14 147.03 215.5 150.39 219.64 150.39C223.78 150.39 227.14 147.03 227.14 142.89C227.14 140.06 227.14 117.47 227.14 114.65C227.14 107.75 232.75 102.15 239.64 102.15C241.61 102.15 251.44 102.15 269.14 102.15L269.14 200.01C266.8 198.84 265.49 198.19 265.23 198.06C261.73 196.31 257.55 196.31 254.05 198.06C252.26 198.95 243.29 203.44 227.14 211.51C227.14 191.2 227.14 179.91 227.14 177.66C227.14 173.51 223.78 170.16 219.64 170.16C215.5 170.16 212.14 173.51 212.14 177.66C212.14 181.45 212.14 211.77 212.14 215.56C212.58 223.61 220.28 231.2 230.23 226.74C232.19 225.75 242 220.85 259.64 212.03L269.14 216.78L269.14 312.15C236.44 312.15 218.27 312.15 214.64 312.15C204.99 312.15 197.14 320 197.14 329.65C197.14 330.65 197.14 338.65 197.14 339.65C197.14 349.29 204.99 357.15 214.64 357.15C218.27 357.15 236.44 357.15 269.14 357.15L269.14 376.8C255.17 376.71 247.41 376.67 245.86 376.66C245.84 376.66 245.83 376.66 245.81 376.66C241.69 376.66 238.34 379.98 238.31 384.11C238.29 388.25 241.62 391.63 245.77 391.66C247.32 391.67 255.12 391.71 269.14 391.8L269.14 411.8C236.7 411.6 218.68 411.49 215.08 411.47C215.06 411.47 215.05 411.47 215.03 411.47C210.91 411.47 207.56 414.79 207.53 418.92C207.51 423.06 210.84 426.44 214.99 426.47C218.6 426.49 236.65 426.6 269.14 426.8C269.14 458.51 269.14 476.12 269.14 479.65C269.14 494.81 281.48 507.15 296.64 507.15C300.89 507.15 334.89 507.15 339.14 507.15C343.28 507.15 346.64 503.79 346.64 499.65C346.64 495.5 343.28 492.15 339.14 492.15C334.89 492.15 300.89 492.15 296.64 492.15C289.75 492.15 284.14 486.54 284.14 479.65C284.14 439.55 284.14 118.75 284.14 78.65C284.14 71.75 289.75 66.15 296.64 66.15C325.44 66.15 555.84 66.15 584.64 66.15C591.53 66.15 597.14 71.75 597.14 78.65C597.14 158.85 597.14 399.45 597.14 479.65Z" id="a216Stjo63"></path><path d="M470.14 129.15C474.28 129.15 477.64 125.79 477.64 121.65C477.64 117.5 474.28 114.15 470.14 114.15C457.29 114.15 354.49 114.15 341.64 114.15C340.26 114.15 339.14 113.02 339.14 111.65C339.14 110.65 339.14 102.65 339.14 101.65C339.14 100.27 340.26 99.15 341.64 99.15C361.44 99.15 519.84 99.15 539.64 99.15C541.02 99.15 542.14 100.27 542.14 101.65C542.14 102.65 542.14 110.65 542.14 111.65C542.14 113.02 541.02 114.15 539.64 114.15C536.19 114.15 508.59 114.15 505.14 114.15C501 114.15 497.64 117.5 497.64 121.65C497.64 125.79 501 129.15 505.14 129.15C508.59 129.15 536.19 129.15 539.64 129.15C549.29 129.15 557.14 121.29 557.14 111.65C557.14 110.65 557.14 102.65 557.14 101.65C557.14 92 549.29 84.15 539.64 84.15C519.84 84.15 361.44 84.15 341.64 84.15C331.99 84.15 324.14 92 324.14 101.65C324.14 102.65 324.14 110.65 324.14 111.65C324.14 121.29 331.99 129.15 341.64 129.15C367.34 129.15 457.29 129.15 470.14 129.15Z" id="c6F0QWo9X"></path><path d="M392.14 149.15C388 149.15 384.64 152.5 384.64 156.65C384.64 160.79 388 164.15 392.14 164.15C401.74 164.15 478.54 164.15 488.14 164.15C492.28 164.15 495.64 160.79 495.64 156.65C495.64 152.5 492.28 149.15 488.14 149.15C468.94 149.15 401.74 149.15 392.14 149.15Z" id="a1WrgcXJx2"></path><path d="M381.47 192.54C385.61 192.54 388.97 189.18 388.97 185.04C388.97 180.9 385.61 177.54 381.47 177.54C376.14 177.54 333.47 177.54 328.14 177.54C324 177.54 320.64 180.9 320.64 185.04C320.64 189.18 324 192.54 328.14 192.54C338.81 192.54 376.14 192.54 381.47 192.54Z" id="a4BR4g8wwr"></path><path d="M414.39 220.94C418.53 220.94 421.89 217.58 421.89 213.44C421.89 209.3 418.53 205.94 414.39 205.94C405.77 205.94 336.77 205.94 328.14 205.94C324 205.94 320.64 209.3 320.64 213.44C320.64 217.58 324 220.94 328.14 220.94C345.39 220.94 405.77 220.94 414.39 220.94Z" id="h30L3ILNlQ"></path><path d="M348.14 234.34C344 234.34 340.64 237.69 340.64 241.84C340.64 245.98 344 249.34 348.14 249.34C368.64 249.34 532.64 249.34 553.14 249.34C557.28 249.34 560.64 245.98 560.64 241.84C560.64 237.69 557.28 234.34 553.14 234.34C512.14 234.34 389.14 234.34 348.14 234.34Z" id="b1jB7wqlMY"></path><path d="M420.64 277.73C424.78 277.73 428.14 274.38 428.14 270.23C428.14 266.09 424.78 262.73 420.64 262.73C411.39 262.73 337.39 262.73 328.14 262.73C324 262.73 320.64 266.09 320.64 270.23C320.64 274.38 324 277.73 328.14 277.73C346.64 277.73 411.39 277.73 420.64 277.73Z" id="acgjdYN1i"></path><path d="M456.64 262.73C452.5 262.73 449.14 266.09 449.14 270.23C449.14 274.38 452.5 277.73 456.64 277.73C466.29 277.73 543.49 277.73 553.14 277.73C557.28 277.73 560.64 274.38 560.64 270.23C560.64 266.09 557.28 262.73 553.14 262.73C533.84 262.73 466.29 262.73 456.64 262.73Z" id="ahylEDpd"></path><path d="M441.14 306.13C445.28 306.13 448.64 302.77 448.64 298.63C448.64 294.49 445.28 291.13 441.14 291.13C429.84 291.13 339.44 291.13 328.14 291.13C324 291.13 320.64 294.49 320.64 298.63C320.64 302.77 324 306.13 328.14 306.13C350.74 306.13 429.84 306.13 441.14 306.13Z" id="akn8tDhpI"></path><path d="M348.14 319.53C344 319.53 340.64 322.88 340.64 327.03C340.64 331.17 344 334.53 348.14 334.53C368.64 334.53 532.64 334.53 553.14 334.53C557.28 334.53 560.64 331.17 560.64 327.03C560.64 322.88 557.28 319.53 553.14 319.53C512.14 319.53 368.64 319.53 348.14 319.53Z" id="b1300J5AYL"></path><path d="M553.14 362.92C557.28 362.92 560.64 359.57 560.64 355.42C560.64 351.28 557.28 347.92 553.14 347.92C530.64 347.92 350.64 347.92 328.14 347.92C324 347.92 320.64 351.28 320.64 355.42C320.64 359.57 324 362.92 328.14 362.92C373.14 362.92 530.64 362.92 553.14 362.92Z" id="a5Rk9in0p"></path><path d="M462.14 391.32C466.28 391.32 469.64 387.96 469.64 383.82C469.64 379.68 466.28 376.32 462.14 376.32C448.74 376.32 341.54 376.32 328.14 376.32C324 376.32 320.64 379.68 320.64 383.82C320.64 387.96 324 391.32 328.14 391.32C354.94 391.32 448.74 391.32 462.14 391.32Z" id="a16VAOSoC9"></path><path d="M497.14 376.32C493 376.32 489.64 379.68 489.64 383.82C489.64 387.96 493 391.32 497.14 391.32C502.74 391.32 547.54 391.32 553.14 391.32C557.28 391.32 560.64 387.96 560.64 383.82C560.64 379.68 557.28 376.32 553.14 376.32C541.94 376.32 502.74 376.32 497.14 376.32Z" id="c52n1gvEOD"></path><path d="M553.14 404.72C530.64 404.72 350.64 404.72 328.14 404.72C324 404.72 320.64 408.07 320.64 412.22C320.64 416.36 324 419.72 328.14 419.72C350.64 419.72 530.64 419.72 553.14 419.72C557.28 419.72 560.64 416.36 560.64 412.22C560.64 408.07 557.28 404.72 553.14 404.72Z" id="e1VlaqZMP"></path><path d="M536.14 456.15C536.14 469.66 547.13 480.65 560.64 480.65C574.15 480.65 585.14 469.66 585.14 456.15C585.14 442.64 574.15 431.65 560.64 431.65C547.13 431.65 536.14 442.64 536.14 456.15ZM551.14 456.15C551.14 450.91 555.4 446.65 560.64 446.65C565.88 446.65 570.14 450.91 570.14 456.15C570.14 461.38 565.88 465.65 560.64 465.65C555.4 465.65 551.14 461.38 551.14 456.15Z" id="aIi7MeTI4"></path><path d="M436.64 448.15C432.5 448.15 429.14 451.5 429.14 455.65C429.14 459.79 432.5 463.15 436.64 463.15C444.04 463.15 503.24 463.15 510.64 463.15C514.78 463.15 518.14 459.79 518.14 455.65C518.14 451.5 514.78 448.15 510.64 448.15C495.84 448.15 444.04 448.15 436.64 448.15Z" id="a2HbluZQr0"></path></defs><g><g><use xlink:href="#bODiGLMfB" opacity="1" fill="#8bccbd" fill-opacity="1"></use><g><use xlink:href="#bODiGLMfB" opacity="1" fill-opacity="0" stroke="#000000" stroke-width="1" stroke-opacity="0"></use></g></g><g><use xlink:href="#b1yT4x3rzt" opacity="1" fill="#8bccbd" fill-opacity="1"></use><g><use xlink:href="#b1yT4x3rzt" opacity="1" fill-opacity="0" stroke="#000000" stroke-width="1" stroke-opacity="0"></use></g></g><g><use xlink:href="#o5FQ9UQQm" opacity="1" fill="#8bccbd" fill-opacity="1"></use><g><use xlink:href="#o5FQ9UQQm" opacity="1" fill-opacity="0" stroke="#000000" stroke-width="1" stroke-opacity="0"></use></g></g><g><use xlink:href="#b21HA84f9" opacity="1" fill="#ffa442" fill-opacity="1"></use><g><use xlink:href="#b21HA84f9" opacity="1" fill-opacity="0" stroke="#000000" stroke-width="1" stroke-opacity="0"></use></g></g><g><use xlink:href="#b20Y2uzBtl" opacity="1" fill="#dc4955" fill-opacity="1"></use><g><use xlink:href="#b20Y2uzBtl" opacity="1" fill-opacity="0" stroke="#000000" stroke-width="1" stroke-opacity="0"></use></g></g><g><use xlink:href="#c48DznANwG" opacity="1" fill="#d82f3c" fill-opacity="1"></use><g><use xlink:href="#c48DznANwG" opacity="1" fill-opacity="0" stroke="#000000" stroke-width="1" stroke-opacity="0"></use></g></g><g><use xlink:href="#h9awbAK0j" opacity="1" fill="#ffbf54" fill-opacity="1"></use><g><use xlink:href="#h9awbAK0j" opacity="1" fill-opacity="0" stroke="#000000" stroke-width="1" stroke-opacity="0"></use></g></g><g><use xlink:href="#alDOG2EUD" opacity="1" fill="#faf8f8" fill-opacity="1"></use><g><use xlink:href="#alDOG2EUD" opacity="1" fill-opacity="0" stroke="#000000" stroke-width="1" stroke-opacity="0"></use></g></g><g><use xlink:href="#ha3LpTW4a" opacity="1" fill="#f0e9e6" fill-opacity="1"></use><g><use xlink:href="#ha3LpTW4a" opacity="1" fill-opacity="0" stroke="#000000" stroke-width="1" stroke-opacity="0"></use></g></g><g><use xlink:href="#dFawUHuIE" opacity="1" fill="#8bccbd" fill-opacity="1"></use><g><use xlink:href="#dFawUHuIE" opacity="1" fill-opacity="0" stroke="#000000" stroke-width="1" stroke-opacity="0"></use></g></g><g><use xlink:href="#g2r6RWSZng" opacity="1" fill="#94ccd4" fill-opacity="1"></use><g><use xlink:href="#g2r6RWSZng" opacity="1" fill-opacity="0" stroke="#000000" stroke-width="1" stroke-opacity="0"></use></g></g><g><use xlink:href="#a2Svvb2hhG" opacity="1" fill="#8bccbd" fill-opacity="1"></use><g><use xlink:href="#a2Svvb2hhG" opacity="1" fill-opacity="0" stroke="#000000" stroke-width="1" stroke-opacity="0"></use></g></g><g><use xlink:href="#c2ms3pbinp" opacity="1" fill="#8bccbd" fill-opacity="1"></use><g><use xlink:href="#c2ms3pbinp" opacity="1" fill-opacity="0" stroke="#000000" stroke-width="1" stroke-opacity="0"></use></g></g><g><use xlink:href="#eah2GgyVD" opacity="1" fill="#000000" fill-opacity="1"></use><g><use xlink:href="#eah2GgyVD" opacity="1" fill-opacity="0" stroke="#000000" stroke-width="1" stroke-opacity="0"></use></g></g><g><use xlink:href="#a216Stjo63" opacity="1" fill="#000000" fill-opacity="1"></use><g><use xlink:href="#a216Stjo63" opacity="1" fill-opacity="0" stroke="#000000" stroke-width="1" stroke-opacity="0"></use></g></g><g><use xlink:href="#c6F0QWo9X" opacity="1" fill="#000000" fill-opacity="1"></use><g><use xlink:href="#c6F0QWo9X" opacity="1" fill-opacity="0" stroke="#000000" stroke-width="1" stroke-opacity="0"></use></g></g><g><use xlink:href="#a1WrgcXJx2" opacity="1" fill="#000000" fill-opacity="1"></use><g><use xlink:href="#a1WrgcXJx2" opacity="1" fill-opacity="0" stroke="#000000" stroke-width="1" stroke-opacity="0"></use></g></g><g><use xlink:href="#a4BR4g8wwr" opacity="1" fill="#000000" fill-opacity="1"></use><g><use xlink:href="#a4BR4g8wwr" opacity="1" fill-opacity="0" stroke="#000000" stroke-width="1" stroke-opacity="0"></use></g></g><g><use xlink:href="#h30L3ILNlQ" opacity="1" fill="#000000" fill-opacity="1"></use><g><use xlink:href="#h30L3ILNlQ" opacity="1" fill-opacity="0" stroke="#000000" stroke-width="1" stroke-opacity="0"></use></g></g><g><use xlink:href="#b1jB7wqlMY" opacity="1" fill="#000000" fill-opacity="1"></use><g><use xlink:href="#b1jB7wqlMY" opacity="1" fill-opacity="0" stroke="#000000" stroke-width="1" stroke-opacity="0"></use></g></g><g><use xlink:href="#acgjdYN1i" opacity="1" fill="#000000" fill-opacity="1"></use><g><use xlink:href="#acgjdYN1i" opacity="1" fill-opacity="0" stroke="#000000" stroke-width="1" stroke-opacity="0"></use></g></g><g><use xlink:href="#ahylEDpd" opacity="1" fill="#000000" fill-opacity="1"></use><g><use xlink:href="#ahylEDpd" opacity="1" fill-opacity="0" stroke="#000000" stroke-width="1" stroke-opacity="0"></use></g></g><g><use xlink:href="#akn8tDhpI" opacity="1" fill="#000000" fill-opacity="1"></use><g><use xlink:href="#akn8tDhpI" opacity="1" fill-opacity="0" stroke="#000000" stroke-width="1" stroke-opacity="0"></use></g></g><g><use xlink:href="#b1300J5AYL" opacity="1" fill="#000000" fill-opacity="1"></use><g><use xlink:href="#b1300J5AYL" opacity="1" fill-opacity="0" stroke="#000000" stroke-width="1" stroke-opacity="0"></use></g></g><g><use xlink:href="#a5Rk9in0p" opacity="1" fill="#000000" fill-opacity="1"></use><g><use xlink:href="#a5Rk9in0p" opacity="1" fill-opacity="0" stroke="#000000" stroke-width="1" stroke-opacity="0"></use></g></g><g><use xlink:href="#a16VAOSoC9" opacity="1" fill="#000000" fill-opacity="1"></use><g><use xlink:href="#a16VAOSoC9" opacity="1" fill-opacity="0" stroke="#000000" stroke-width="1" stroke-opacity="0"></use></g></g><g><use xlink:href="#c52n1gvEOD" opacity="1" fill="#000000" fill-opacity="1"></use><g><use xlink:href="#c52n1gvEOD" opacity="1" fill-opacity="0" stroke="#000000" stroke-width="1" stroke-opacity="0"></use></g></g><g><use xlink:href="#e1VlaqZMP" opacity="1" fill="#000000" fill-opacity="1"></use><g><use xlink:href="#e1VlaqZMP" opacity="1" fill-opacity="0" stroke="#000000" stroke-width="1" stroke-opacity="0"></use></g></g><g><use xlink:href="#aIi7MeTI4" opacity="1" fill="#000000" fill-opacity="1"></use><g><use xlink:href="#aIi7MeTI4" opacity="1" fill-opacity="0" stroke="#000000" stroke-width="1" stroke-opacity="0"></use></g></g><g><use xlink:href="#a2HbluZQr0" opacity="1" fill="#000000" fill-opacity="1"></use><g><use xlink:href="#a2HbluZQr0" opacity="1" fill-opacity="0" stroke="#000000" stroke-width="1" stroke-opacity="0"></use></g></g></g></svg>