<?xml version="1.0" encoding="UTF-8" standalone="no"?>
<!DOCTYPE svg PUBLIC "-//W3C//DTD SVG 1.1//EN" "http://www.w3.org/Graphics/SVG/1.1/DTD/svg11.dtd">
<svg version="1.1" xmlns="http://www.w3.org/2000/svg" xmlns:xlink="http://www.w3.org/1999/xlink" preserveAspectRatio="xMidYMid meet" viewBox="-0.9626768780918458 -1 515.9248018799241 516" width="20" height="20"><defs><path d="M485.7 104.95C483.24 107.42 470.9 119.76 448.68 141.98L370.02 63.31C392.23 41.1 404.57 28.76 407.04 26.29C428.76 4.57 463.98 4.57 485.7 26.29C507.42 48.02 507.42 83.23 485.7 104.95Z" id="bq1x3XD3y"></path><path d="M73.88 488.44L23.6 438.15L10.04 502L73.88 488.44Z" id="bVVPjyErG"></path><path d="M52.62 380.75C45.29 388.08 41.22 392.15 40.41 392.96C34.44 398.94 30.32 406.51 28.57 414.77C28.24 416.33 26.58 424.12 23.6 438.15L73.88 488.44C87.91 485.46 95.7 483.8 97.26 483.47C105.52 481.71 113.09 477.6 119.06 471.63C119.88 470.81 123.95 466.74 131.28 459.42" id="aBak0CJpO"></path><path d="M307.59 283.09L391.15 199.52L351.82 160.18C199.71 312.31 115.2 396.83 98.3 413.73C96.57 425.94 100.4 438.78 109.78 448.17C115.87 454.25 123.4 458 131.28 459.42C138.39 452.3 173.96 416.73 237.99 352.7" id="d8wZXLxDJD"></path><path d="M351.82 160.18L312.49 120.85C156.57 276.79 69.94 363.42 52.62 380.75C54.03 388.62 57.78 396.16 63.87 402.25C73.25 411.63 86.09 415.46 98.3 413.73C132.1 379.93 216.61 295.41 351.82 160.18Z" id="a1a78HlK6m"></path><path d="M265.24 311.29C268.97 307.42 275.67 307.42 279.38 311.29C285.66 317.48 281.12 328.42 272.31 328.36C263.51 328.43 258.97 317.46 265.24 311.29Z" id="b6oe65jhkS"></path><path d="M391.15 199.57L312.5 120.92L341.27 92.15L419.92 170.8L391.15 199.57Z" id="b1cSqzcPGk"></path><path d="M341.2 92.1L369.96 63.33L448.61 141.98L419.85 170.75L341.2 92.1Z" id="aaf7ku4Bn"></path><path d="M446.37 0C428.84 0 412.36 6.83 399.97 19.22C363.3 55.89 70 349.23 33.33 385.89C25.98 393.25 20.95 402.52 18.79 412.69C16.93 421.42 2.11 491.2 0.26 499.92C-0.45 503.23 0.57 506.68 2.97 509.07C4.86 510.97 7.41 512 10.04 512C10.73 512 11.43 511.93 12.12 511.78C20.84 509.93 90.62 495.1 99.34 493.25C109.51 491.09 118.78 486.06 126.14 478.7C138.03 466.81 233.16 371.66 245.06 359.77C248.96 355.86 248.96 349.53 245.05 345.63C241.15 341.72 234.82 341.72 230.91 345.63C220.65 355.89 138.51 438.04 128.24 448.3C123.98 446.8 120.11 444.35 116.85 441.1C110.73 434.97 107.56 426.79 107.91 418.26C124.17 402 205.47 320.69 351.82 174.32L377.01 199.51C331.11 245.42 305.62 270.92 300.52 276.02C296.61 279.92 296.61 286.25 300.52 290.16C304.42 294.06 310.75 294.06 314.66 290.16C332.47 272.34 474.96 129.84 492.77 112.02C518.36 86.44 518.36 44.81 492.78 19.22C480.38 6.83 463.9 0 446.37 0ZM312.49 134.99L337.68 160.18C191.33 306.54 110.03 387.85 93.77 404.12C85.23 404.47 77.06 401.3 70.94 395.17C67.68 391.92 65.24 388.04 63.73 383.78C96.9 350.61 179.82 267.68 312.49 134.99ZM29.55 458.25L53.78 482.48L23.02 489.02L29.55 458.25ZM111.99 464.56C107.38 469.17 101.56 472.33 95.18 473.69C93.98 473.94 87.95 475.22 77.11 477.53L34.51 434.92C36.81 424.08 38.09 418.05 38.35 416.85C39.7 410.46 42.86 404.65 47.48 400.03C47.6 399.91 48.59 398.92 48.71 398.8C50.91 402.61 53.62 406.14 56.79 409.32C65.35 417.88 76.35 422.95 88.06 423.96C89.07 435.68 94.15 446.68 102.71 455.24C105.88 458.41 109.42 461.12 113.23 463.32C112.98 463.57 112.12 464.44 111.99 464.56ZM391.15 185.37L326.63 120.85L341.26 106.22L405.78 170.75L391.15 185.37ZM419.92 156.6L355.4 92.08L370.02 77.45L434.54 141.98L419.92 156.6ZM448.68 127.83L384.17 63.31C402.13 45.34 412.11 35.36 414.11 33.36C422.73 24.75 434.18 20 446.37 20C458.56 20 470.02 24.75 478.63 33.36C496.42 51.15 496.42 80.1 478.63 97.88C474.64 101.88 464.66 111.86 448.68 127.83Z" id="f37B5rvjcE"></path></defs><g><g><use xlink:href="#bq1x3XD3y" opacity="1" fill="#ff5d5d" fill-opacity="1"></use><g><use xlink:href="#bq1x3XD3y" opacity="1" fill-opacity="0" stroke="#000000" stroke-width="1" stroke-opacity="0"></use></g></g><g><use xlink:href="#bVVPjyErG" opacity="1" fill="#6eb4c7" fill-opacity="1"></use><g><use xlink:href="#bVVPjyErG" opacity="1" fill-opacity="0" stroke="#000000" stroke-width="1" stroke-opacity="0"></use></g></g><g><use xlink:href="#aBak0CJpO" opacity="1" fill="#ffffff" fill-opacity="1"></use><g><use xlink:href="#aBak0CJpO" opacity="1" fill-opacity="0" stroke="#000000" stroke-width="1" stroke-opacity="0"></use></g></g><g><use xlink:href="#d8wZXLxDJD" opacity="1" fill="#fee77b" fill-opacity="1"></use><g><use xlink:href="#d8wZXLxDJD" opacity="1" fill-opacity="0" stroke="#000000" stroke-width="1" stroke-opacity="0"></use></g></g><g><use xlink:href="#a1a78HlK6m" opacity="1" fill="#ffc857" fill-opacity="1"></use><g><use xlink:href="#a1a78HlK6m" opacity="1" fill-opacity="0" stroke="#000000" stroke-width="1" stroke-opacity="0"></use></g></g><g><use xlink:href="#b6oe65jhkS" opacity="1" fill="#000000" fill-opacity="1"></use><g><use xlink:href="#b6oe65jhkS" opacity="1" fill-opacity="0" stroke="#000000" stroke-width="1" stroke-opacity="0"></use></g></g><g><use xlink:href="#b1cSqzcPGk" opacity="1" fill="#6eb4c7" fill-opacity="1"></use><g><use xlink:href="#b1cSqzcPGk" opacity="1" fill-opacity="0" stroke="#000000" stroke-width="1" stroke-opacity="0"></use></g></g><g><use xlink:href="#aaf7ku4Bn" opacity="1" fill="#b8ecff" fill-opacity="1"></use><g><use xlink:href="#aaf7ku4Bn" opacity="1" fill-opacity="0" stroke="#000000" stroke-width="1" stroke-opacity="0"></use></g></g><g><use xlink:href="#f37B5rvjcE" opacity="1" fill="#000000" fill-opacity="1"></use><g><use xlink:href="#f37B5rvjcE" opacity="1" fill-opacity="0" stroke="#000000" stroke-width="1" stroke-opacity="0"></use></g></g></g></svg>