<?xml version="1.0" encoding="UTF-8" standalone="no"?>
<!DOCTYPE svg PUBLIC "-//W3C//DTD SVG 1.1//EN" "http://www.w3.org/Graphics/SVG/1.1/DTD/svg11.dtd">
<svg version="1.1" xmlns="http://www.w3.org/2000/svg" xmlns:xlink="http://www.w3.org/1999/xlink" preserveAspectRatio="xMidYMid meet" viewBox="-1 -1 644 644" width="40" height="40"><defs><path d="M256 64C256 99.35 284.65 128 320 128C355.33 127.97 383.97 99.33 384 64C384 28.65 355.35 0 320 0C284.65 0 256 28.65 256 64ZM277.33 64C277.33 40.44 296.44 21.33 320 21.33C343.56 21.33 362.67 40.44 362.67 64C362.67 87.56 343.56 106.67 320 106.67C296.44 106.67 277.33 87.56 277.33 64Z" id="bMcWCr3AP"></path><path d="M360.15 138.67C358.8 139.34 358.05 139.71 357.9 139.79C334.03 151.67 305.97 151.67 282.1 139.79C281.95 139.71 281.2 139.34 279.85 138.67C278.34 138.67 277.5 138.67 277.33 138.67C247.89 138.7 224.03 162.56 224 192C224 198.4 224 249.6 224 256C224 273.67 238.33 288 256 288C268.8 288 371.2 288 384 288C401.67 288 416 273.67 416 256C416 249.6 416 198.4 416 192C415.97 162.56 392.11 138.7 362.67 138.67C362.33 138.67 361.49 138.67 360.15 138.67ZM384 266.67C371.2 266.67 268.8 266.67 256 266.67C250.11 266.67 245.33 261.89 245.33 256C245.33 249.6 245.33 198.4 245.33 192C245.34 175.21 258.31 161.28 275.06 160.09C303.56 173.31 336.44 173.31 364.94 160.09C381.69 161.28 394.66 175.21 394.67 192C394.67 196.27 394.67 217.6 394.67 256C391.48 263.11 387.93 266.67 384 266.67Z" id="aYW0H5cK3"></path><path d="M480 416C480 451.35 508.65 480 544 480C579.35 480 608 451.35 608 416C607.97 380.67 579.33 352.03 544 352C508.65 352 480 380.65 480 416ZM501.33 416C501.33 392.44 520.44 373.33 544 373.33C567.56 373.33 586.67 392.44 586.67 416C586.67 439.56 567.56 458.67 544 458.67C520.44 458.67 501.33 439.56 501.33 416Z" id="e4sr6Z5BGf"></path><path d="M584.15 490.67C582.8 491.31 582.05 491.66 581.9 491.73C558.03 503.62 529.97 503.62 506.1 491.73C505.95 491.66 505.2 491.31 503.85 490.67C502.34 490.67 501.5 490.67 501.33 490.67C471.89 490.7 448.03 514.56 448 544C448 550.4 448 601.6 448 608C448 625.67 462.33 640 480 640C492.8 640 595.2 640 608 640C625.67 640 640 625.67 640 608C640 601.6 640 550.4 640 544C639.97 514.56 616.11 490.7 586.67 490.67C586.33 490.67 585.49 490.67 584.15 490.67ZM608 618.67C595.2 618.67 492.8 618.67 480 618.67C474.11 618.67 469.33 613.89 469.33 608C469.33 601.6 469.33 550.4 469.33 544C469.34 527.21 482.31 513.28 499.06 512.09C527.56 525.31 560.44 525.31 588.94 512.09C605.69 513.28 618.66 527.21 618.67 544C618.67 548.27 618.67 569.6 618.67 608C615.48 615.11 611.93 618.67 608 618.67Z" id="a9ic7WQwvl"></path><path d="M32 416C32 451.35 60.65 480 96 480C131.35 480 160 451.35 160 416C159.97 380.67 131.33 352.03 96 352C60.65 352 32 380.65 32 416ZM53.33 416C53.33 392.44 72.44 373.33 96 373.33C119.56 373.33 138.67 392.44 138.67 416C138.67 439.56 119.56 458.67 96 458.67C72.44 458.67 53.33 439.56 53.33 416Z" id="c2RphSfOCc"></path><path d="M136.15 490.67C134.8 491.31 134.05 491.66 133.9 491.73C110.03 503.62 81.97 503.62 58.1 491.73C57.95 491.66 57.2 491.31 55.85 490.67C54.34 490.67 53.5 490.67 53.33 490.67C23.89 490.7 0.03 514.56 0 544C0 550.4 0 601.6 0 608C0 625.67 14.33 640 32 640C44.8 640 147.2 640 160 640C177.67 640 192 625.67 192 608C192 601.6 192 550.4 192 544C191.97 514.56 168.11 490.7 138.67 490.67C138.33 490.67 137.49 490.67 136.15 490.67ZM160 618.67C147.2 618.67 44.8 618.67 32 618.67C26.11 618.67 21.33 613.89 21.33 608C21.33 601.6 21.33 550.4 21.33 544C21.34 527.21 34.31 513.28 51.06 512.09C79.56 525.31 112.44 525.31 140.94 512.09C157.69 513.28 170.66 527.21 170.67 544C170.67 548.27 170.67 569.6 170.67 608C167.48 615.11 163.93 618.67 160 618.67Z" id="d1wccCr5Vt"></path><path d="M425.81 541.66C423.5 536.24 417.24 533.72 411.82 536.03C411.82 536.03 411.82 536.03 411.82 536.03C363.65 556.22 310.16 559.9 259.68 546.51C260.68 546.21 268.67 543.87 269.67 543.57C275.32 541.92 278.56 535.99 276.91 530.34C275.25 524.68 269.33 521.44 263.67 523.09C259.4 524.34 225.27 534.35 221 535.61C220.84 535.61 220.73 535.79 220.58 535.84C219.59 536.21 218.66 536.72 217.83 537.37C217.45 537.57 217.1 537.79 216.76 538.04C215.63 539.04 214.74 540.28 214.15 541.66C213.57 543.06 213.29 544.56 213.33 546.07C213.59 547.51 213.95 548.94 214.4 550.34C214.47 550.49 214.4 550.66 214.52 550.81C216.65 554.89 233.72 587.54 235.85 591.63C238.58 596.85 245.03 598.88 250.25 596.15C255.48 593.42 257.5 586.97 254.77 581.75C253.91 580.09 246.96 566.81 246.09 565.15C303.44 582.39 365.02 579.04 420.16 555.68C425.59 553.39 428.12 547.13 425.83 541.7C425.82 541.69 425.82 541.68 425.81 541.66Z" id="iqxLm5tpZ"></path><path d="M589.79 280.46C588.28 281.97 576.21 294.04 574.7 295.55C565.87 202.13 506.55 121.05 420.18 84.35C414.76 82.04 408.5 84.56 406.19 89.98C403.88 95.4 406.4 101.67 411.82 103.98C489.3 136.91 543.16 208.87 552.91 292.49C551.7 291.29 542.08 281.66 540.87 280.46C536.64 276.37 529.89 276.48 525.79 280.72C521.8 284.85 521.8 291.41 525.79 295.54C528.99 298.74 554.59 324.34 557.79 327.54C561.95 331.71 568.71 331.72 572.88 327.56C572.88 327.55 572.89 327.55 572.9 327.54C576.1 324.34 601.7 298.74 604.9 295.54C609.05 291.37 609.05 284.62 604.87 280.46C600.71 276.29 593.96 276.29 589.79 280.46Z" id="d3DqqN2eJ5"></path><path d="M234.08 90.52C234.08 90.42 233.96 90.36 233.92 90.25C233.88 90.14 233.92 90.07 233.92 89.98C233.63 89.47 233.29 88.97 232.92 88.51C232.57 87.89 232.16 87.3 231.7 86.75C231.07 86.19 230.37 85.72 229.62 85.33C229.25 85.01 228.85 84.73 228.43 84.47C224.16 82.52 190.03 66.93 185.76 64.98C180.31 62.74 174.08 65.35 171.84 70.8C169.73 75.95 171.93 81.87 176.91 84.37C179.12 85.38 196.79 93.46 199 94.47C115.83 138.98 63.94 225.67 64 320C64 325.89 68.78 330.67 74.67 330.67C80.56 330.67 85.33 325.89 85.33 320C85.28 236.94 129.2 160.06 200.78 117.93C200.01 119.54 193.84 132.44 193.07 134.05C190.52 139.35 192.75 145.71 198.05 148.27C199.49 148.97 201.07 149.33 202.67 149.33C206.76 149.33 210.49 146.98 212.27 143.29C214.4 138.83 231.47 103.22 233.6 98.77C233.6 98.67 233.6 98.55 233.69 98.44C233.96 97.71 234.16 96.95 234.26 96.18C234.44 95.61 234.58 95.02 234.67 94.42C234.63 93.73 234.53 93.04 234.36 92.36C234.32 91.74 234.23 91.12 234.08 90.52Z" id="fjqqIPVfS"></path></defs><g><g><use xlink:href="#bMcWCr3AP" opacity="1" fill="#000000" fill-opacity="1"></use><g><use xlink:href="#bMcWCr3AP" opacity="1" fill-opacity="0" stroke="#000000" stroke-width="1" stroke-opacity="0"></use></g></g><g><use xlink:href="#aYW0H5cK3" opacity="1" fill="#000000" fill-opacity="1"></use><g><use xlink:href="#aYW0H5cK3" opacity="1" fill-opacity="0" stroke="#000000" stroke-width="1" stroke-opacity="0"></use></g></g><g><use xlink:href="#e4sr6Z5BGf" opacity="1" fill="#000000" fill-opacity="1"></use><g><use xlink:href="#e4sr6Z5BGf" opacity="1" fill-opacity="0" stroke="#000000" stroke-width="1" stroke-opacity="0"></use></g></g><g><use xlink:href="#a9ic7WQwvl" opacity="1" fill="#000000" fill-opacity="1"></use><g><use xlink:href="#a9ic7WQwvl" opacity="1" fill-opacity="0" stroke="#000000" stroke-width="1" stroke-opacity="0"></use></g></g><g><use xlink:href="#c2RphSfOCc" opacity="1" fill="#000000" fill-opacity="1"></use><g><use xlink:href="#c2RphSfOCc" opacity="1" fill-opacity="0" stroke="#000000" stroke-width="1" stroke-opacity="0"></use></g></g><g><use xlink:href="#d1wccCr5Vt" opacity="1" fill="#000000" fill-opacity="1"></use><g><use xlink:href="#d1wccCr5Vt" opacity="1" fill-opacity="0" stroke="#000000" stroke-width="1" stroke-opacity="0"></use></g></g><g><use xlink:href="#iqxLm5tpZ" opacity="1" fill="#000000" fill-opacity="1"></use><g><use xlink:href="#iqxLm5tpZ" opacity="1" fill-opacity="0" stroke="#000000" stroke-width="1" stroke-opacity="0"></use></g></g><g><use xlink:href="#d3DqqN2eJ5" opacity="1" fill="#000000" fill-opacity="1"></use><g><use xlink:href="#d3DqqN2eJ5" opacity="1" fill-opacity="0" stroke="#000000" stroke-width="1" stroke-opacity="0"></use></g></g><g><use xlink:href="#fjqqIPVfS" opacity="1" fill="#000000" fill-opacity="1"></use><g><use xlink:href="#fjqqIPVfS" opacity="1" fill-opacity="0" stroke="#000000" stroke-width="1" stroke-opacity="0"></use></g></g></g></svg>