<?xml version="1.0" encoding="UTF-8" standalone="no"?>
<!DOCTYPE svg PUBLIC "-//W3C//DTD SVG 1.1//EN" "http://www.w3.org/Graphics/SVG/1.1/DTD/svg11.dtd">
<svg version="1.1" xmlns="http://www.w3.org/2000/svg" xmlns:xlink="http://www.w3.org/1999/xlink" preserveAspectRatio="xMidYMid meet" viewBox="-0.9995184890516826 -1 643.999175661829 644" width="30" height="30"><defs><path d="M608.81 529.02C595.29 531.84 586.61 545.08 589.43 558.59C591.05 566.38 589.12 574.36 584.13 580.49C581.25 584.04 574.81 590 564.13 590C515.31 590 124.69 590 75.87 590C65.19 590 58.76 584.04 55.87 580.49C50.88 574.36 48.95 566.38 50.57 558.59C76.52 433.98 186.44 342.94 313.37 339.87C315.57 339.96 317.78 340 320 340C322.23 340 324.45 339.96 326.65 339.87C416.07 342.02 498.71 387.31 548.76 461.95C556.45 473.42 571.98 476.48 583.45 468.79C594.92 461.1 597.98 445.57 590.29 434.1C549.27 372.92 489.7 328.44 421.79 306.08C463.17 275.05 490 225.6 490 170C490 76.26 413.74 0 320 0C226.26 0 150 76.26 150 170C150 225.63 176.86 275.11 218.29 306.14C180.33 318.64 144.71 338.08 113.54 363.73C56.37 410.75 16.63 476.33 1.62 548.4C-3.08 570.99 2.55 594.18 17.08 612.04C31.53 629.81 52.96 640 75.87 640C124.69 640 515.31 640 564.13 640C587.04 640 608.47 629.81 622.92 612.04C637.45 594.18 643.08 570.99 638.38 548.4C635.56 534.89 622.33 526.21 608.81 529.02ZM320 50C386.17 50 440 103.83 440 170C440 234.13 389.43 286.67 326.07 289.85C324.05 289.81 322.03 289.79 320 289.79C317.98 289.79 315.96 289.81 313.95 289.85C250.58 286.69 200 234.14 200 170C200 103.83 253.83 50 320 50Z" id="a2oQNC93m"></path><linearGradient id="gradientb8ksF3swh" gradientUnits="userSpaceOnUse" x1="0" y1="320" x2="640" y2="320"><stop style="stop-color: #8bccbd;stop-opacity: 1" offset="0%"></stop><stop style="stop-color: #03effe;stop-opacity: 1" offset="100%"></stop><stop style="stop-color: #24d2fe;stop-opacity: 1" offset="29.299999999999997%"></stop><stop style="stop-color: #3cbdfe;stop-opacity: 1" offset="55.400000000000006%"></stop><stop style="stop-color: #4ab0fe;stop-opacity: 1" offset="79.60000000000001%"></stop><stop style="stop-color: #4facfe;stop-opacity: 1" offset="100%"></stop></linearGradient></defs><g><g><use xlink:href="#a2oQNC93m" opacity="1" fill="url(#gradientb8ksF3swh)"></use><g><use xlink:href="#a2oQNC93m" opacity="1" fill-opacity="0" stroke="#000000" stroke-width="1" stroke-opacity="0"></use></g></g></g></svg>