<?xml version="1.0" encoding="UTF-8" standalone="no"?>
<!DOCTYPE svg PUBLIC "-//W3C//DTD SVG 1.1//EN" "http://www.w3.org/Graphics/SVG/1.1/DTD/svg11.dtd">
<svg version="1.1" xmlns="http://www.w3.org/2000/svg" xmlns:xlink="http://www.w3.org/1999/xlink" preserveAspectRatio="xMidYMid meet" viewBox="56.06247927545769 25.37046712527672 529.8750414490846 597.0897103718365" width="525.88" height="593.09"><defs><path d="M265.24 56.88L351.23 105.33L437.21 152.88C437.21 211.57 437.21 244.17 437.21 250.69C437.21 304.52 439.93 348.49 442.64 348.49C445.36 348.49 459.84 341.31 474.32 333.23C476.13 332.16 485.18 326.77 501.48 317.08L498.76 219.28L496.05 120.58C447.17 92.59 420.02 77.04 414.59 73.93C370.23 47.9 331.31 26.37 328.6 26.37C325.88 26.37 310.5 33.55 295.11 41.62C291.13 43.66 281.17 48.74 265.24 56.88Z" id="a6ZYBpPZm"></path><path d="M67.92 199.54C67.74 201.81 66.84 213.18 65.21 233.64C101.59 213.72 121.81 202.65 125.85 200.44C159.34 181.6 197.36 160.06 210.93 152.88C234.47 139.43 238.09 140.32 323.17 188.77C328.96 192.18 357.92 209.23 410.06 239.92C410.06 220 410.06 208.93 410.06 206.72C410.06 170.83 411.87 172.62 274.29 94.56C271.58 93.07 258 85.59 233.56 72.13L152.1 118.79C97.79 151.09 69.73 178.01 67.92 199.54Z" id="a3nEXVmEjf"></path><path d="M518.67 344C469.8 370.92 442.64 385.87 437.21 388.86C356.66 432.83 355.75 433.73 374.76 448.98C385.62 457.95 400.1 465.13 406.44 465.13C413.68 465.13 456.22 444.49 500.57 419.37C506.06 416.26 533.52 400.71 582.94 372.71L580.22 274.01L577.51 174.42L548.54 157.37L518.67 140.32L518.67 242.61L518.67 344Z" id="b6KAqsLygQ"></path><path d="M57.06 272.22L59.78 369.12L61.59 466.03L90.55 483.97L120.42 502.82L120.42 404.12L120.42 304.52C169.3 276.53 196.45 260.97 201.88 257.86C247.14 232.74 283.34 209.41 283.34 205.82C283.34 203.13 272.48 194.16 258 186.98C234.47 173.52 230.85 174.42 145.76 222.87C133.94 229.45 104.37 245.9 57.06 272.22Z" id="d8S23Lssqg"></path><path d="M147.57 325.16L147.57 421.17L147.57 518.07L234.47 569.21L321.36 619.46L351.23 603.31L382 587.16C367.34 578.55 359.19 573.76 357.56 572.8C343.99 564.73 305.97 543.19 272.48 524.35C268.44 522.14 248.22 511.07 211.84 491.15L209.12 394.25L206.41 297.34L177.44 310.8L147.57 325.16Z" id="c3TXcvE8vL"></path><path d="M407.34 501.02C402.82 501.02 365.71 480.38 323.17 456.16C280.63 431.04 244.42 411.3 242.61 411.3C239.9 411.3 238.09 424.75 238.09 441.8C238.09 471.41 242.61 475.9 317.74 519.86C361.18 544.99 401.01 566.52 405.53 566.52C410.96 566.52 452.6 544.99 498.76 518.97C580.22 471.41 582.03 469.62 582.03 436.42C582.03 417.58 581.13 402.32 580.22 403.22C578.41 403.22 541.3 425.65 496.05 452.57C451.7 478.59 410.96 501.02 407.34 501.02Z" id="cb0unrv5k"></path></defs><g><g><use xlink:href="#a6ZYBpPZm" opacity="1" fill="#000000" fill-opacity="1"></use><g><use xlink:href="#a6ZYBpPZm" opacity="1" fill-opacity="0" stroke="#000000" stroke-width="1" stroke-opacity="0"></use></g></g><g><use xlink:href="#a3nEXVmEjf" opacity="1" fill="#000000" fill-opacity="1"></use><g><use xlink:href="#a3nEXVmEjf" opacity="1" fill-opacity="0" stroke="#000000" stroke-width="1" stroke-opacity="0"></use></g></g><g><use xlink:href="#b6KAqsLygQ" opacity="1" fill="#000000" fill-opacity="1"></use><g><use xlink:href="#b6KAqsLygQ" opacity="1" fill-opacity="0" stroke="#000000" stroke-width="1" stroke-opacity="0"></use></g></g><g><use xlink:href="#d8S23Lssqg" opacity="1" fill="#000000" fill-opacity="1"></use><g><use xlink:href="#d8S23Lssqg" opacity="1" fill-opacity="0" stroke="#000000" stroke-width="1" stroke-opacity="0"></use></g></g><g><use xlink:href="#c3TXcvE8vL" opacity="1" fill="#000000" fill-opacity="1"></use><g><use xlink:href="#c3TXcvE8vL" opacity="1" fill-opacity="0" stroke="#000000" stroke-width="1" stroke-opacity="0"></use></g></g><g><use xlink:href="#cb0unrv5k" opacity="1" fill="#000000" fill-opacity="1"></use><g><use xlink:href="#cb0unrv5k" opacity="1" fill-opacity="0" stroke="#000000" stroke-width="1" stroke-opacity="0"></use></g></g></g></svg>