<?xml version="1.0" encoding="UTF-8" standalone="no"?>
<!DOCTYPE svg PUBLIC "-//W3C//DTD SVG 1.1//EN" "http://www.w3.org/Graphics/SVG/1.1/DTD/svg11.dtd">
<svg version="1.1" xmlns="http://www.w3.org/2000/svg" xmlns:xlink="http://www.w3.org/1999/xlink" preserveAspectRatio="xMidYMid meet" viewBox="0 0 640 640" width="640" height="640"><defs><path d="M303.32 247.69L315.95 254.87L328.59 261.92C328.59 270.62 328.59 275.45 328.59 276.41C328.59 284.39 328.99 290.91 329.38 290.91C329.78 290.91 331.91 289.85 334.04 288.65C334.31 288.49 335.64 287.69 338.03 286.26L337.63 271.76L337.23 257.13C330.05 252.98 326.06 250.67 325.26 250.21C318.74 246.36 313.03 243.16 312.63 243.16C312.23 243.16 309.97 244.23 307.71 245.43C307.12 245.73 305.66 246.48 303.32 247.69Z" id="bhLZfJVv0"></path><path d="M274.32 268.83C274.3 269.17 274.16 270.85 273.92 273.89C279.27 270.93 282.24 269.29 282.83 268.97C287.76 266.17 293.34 262.98 295.34 261.92C298.79 259.92 299.33 260.06 311.83 267.24C312.68 267.74 316.94 270.27 324.6 274.82C324.6 271.87 324.6 270.23 324.6 269.9C324.6 264.58 324.86 264.84 304.65 253.27C304.25 253.05 302.25 251.94 298.66 249.95L286.69 256.86C278.71 261.65 274.59 265.64 274.32 268.83Z" id="dbE0nj7Ec"></path><path d="M340.56 290.25C333.37 294.24 329.38 296.45 328.59 296.9C316.75 303.41 316.62 303.55 319.41 305.81C321.01 307.14 323.13 308.2 324.06 308.2C325.13 308.2 331.38 305.14 337.9 301.42C338.7 300.96 342.74 298.65 350 294.5L349.6 279.87L349.2 265.11L344.95 262.58L340.56 260.06L340.56 275.22L340.56 290.25Z" id="b1Vxz4ssXf"></path><path d="M272.73 279.61L273.13 293.97L273.39 308.33L277.65 310.99L282.04 313.79L282.04 299.16L282.04 284.39C289.22 280.24 293.21 277.94 294.01 277.48C300.66 273.75 305.98 270.3 305.98 269.76C305.98 269.37 304.38 268.04 302.25 266.97C298.79 264.98 298.26 265.11 285.76 272.29C284.02 273.27 279.68 275.71 272.73 279.61Z" id="a1oRhR2bRL"></path><path d="M286.03 287.45L286.03 301.68L286.03 316.05L298.79 323.63L311.56 331.08L315.95 328.68L320.47 326.29C318.32 325.01 317.12 324.3 316.88 324.16C314.89 322.96 309.3 319.77 304.38 316.98C303.79 316.65 300.82 315.01 295.47 312.06L295.07 297.69L294.67 283.33L290.42 285.33L286.03 287.45Z" id="crdOmjPY2"></path><path d="M324.2 313.52C323.53 313.52 318.08 310.46 311.83 306.87C305.58 303.15 300.26 300.22 299.99 300.22C299.59 300.22 299.33 302.22 299.33 304.74C299.33 309.13 299.99 309.8 311.03 316.31C317.41 320.04 323.27 323.23 323.93 323.23C324.73 323.23 330.85 320.04 337.63 316.18C349.6 309.13 349.87 308.87 349.87 303.95C349.87 301.15 349.73 298.89 349.6 299.02C349.33 299.02 343.88 302.35 337.23 306.34C330.71 310.2 324.73 313.52 324.2 313.52Z" id="g3PUOG503I"></path></defs><g><g><g><use xlink:href="#bhLZfJVv0" opacity="1" fill="#8bccbd" fill-opacity="1"></use><g><use xlink:href="#bhLZfJVv0" opacity="1" fill-opacity="0" stroke="#000000" stroke-width="1" stroke-opacity="0"></use></g></g><g><use xlink:href="#dbE0nj7Ec" opacity="1" fill="#8bccbd" fill-opacity="1"></use><g><use xlink:href="#dbE0nj7Ec" opacity="1" fill-opacity="0" stroke="#000000" stroke-width="1" stroke-opacity="0"></use></g></g><g><use xlink:href="#b1Vxz4ssXf" opacity="1" fill="#8bccbd" fill-opacity="1"></use><g><use xlink:href="#b1Vxz4ssXf" opacity="1" fill-opacity="0" stroke="#000000" stroke-width="1" stroke-opacity="0"></use></g></g><g><use xlink:href="#a1oRhR2bRL" opacity="1" fill="#8bccbd" fill-opacity="1"></use><g><use xlink:href="#a1oRhR2bRL" opacity="1" fill-opacity="0" stroke="#000000" stroke-width="1" stroke-opacity="0"></use></g></g><g><use xlink:href="#crdOmjPY2" opacity="1" fill="#8bccbd" fill-opacity="1"></use><g><use xlink:href="#crdOmjPY2" opacity="1" fill-opacity="0" stroke="#000000" stroke-width="1" stroke-opacity="0"></use></g></g><g><use xlink:href="#g3PUOG503I" opacity="1" fill="#8bccbd" fill-opacity="1"></use><g><use xlink:href="#g3PUOG503I" opacity="1" fill-opacity="0" stroke="#000000" stroke-width="1" stroke-opacity="0"></use></g></g></g></g></svg>