<?xml version="1.0" standalone="no"?>
<!DOCTYPE svg PUBLIC "-//W3C//DTD SVG 20010904//EN"
 "http://www.w3.org/TR/2001/REC-SVG-20010904/DTD/svg10.dtd">
<svg version="1.0" xmlns="http://www.w3.org/2000/svg"
 width="200.000000pt" height="200.000000pt" viewBox="0 0 200.000000 200.000000"
 preserveAspectRatio="xMidYMid meet">

<g transform="translate(0.000000,200.000000) scale(0.100000,-0.100000)"
fill="#000000" stroke="none">
<path d="M363 1312 l-33 -17 95 -54 95 -53 0 -109 c0 -60 3 -109 6 -109 3 0
19 8 35 17 l30 18 -3 109 -3 110 -90 52 c-49 29 -92 53 -95 53 -3 0 -20 -8
-37 -17z"/>
<path d="M205 1226 c-86 -50 -90 -54 -93 -90 l-3 -38 67 37 c37 21 79 45 94
53 26 15 30 14 124 -40 l96 -57 0 37 c0 40 2 38 -150 125 l-45 25 -90 -52z"/>
<path d="M610 1088 l0 -113 -90 -50 c-89 -49 -90 -50 -69 -67 12 -10 28 -18
35 -18 8 0 55 23 104 51 l91 52 -3 110 -3 111 -32 19 -33 19 0 -114z"/>
<path d="M1593 1186 c10 -8 17 -27 17 -48 0 -32 -2 -34 -27 -31 -67 10 -115
-36 -115 -112 0 -84 51 -123 118 -92 19 9 34 12 34 7 0 -6 15 -10 33 -10 29 1
30 2 15 14 -16 11 -18 31 -18 150 l0 136 -37 0 c-34 -1 -36 -2 -20 -14z m17
-175 c0 -76 -11 -93 -57 -93 -35 0 -53 26 -53 77 0 59 22 85 71 85 l39 0 0
-69z"/>
<path d="M198 1110 l-98 -55 3 -108 2 -108 32 -20 33 -21 0 110 0 111 90 52
c50 28 90 54 90 58 0 3 -12 13 -28 21 -26 15 -30 14 -124 -40z"/>
<path d="M793 1095 c-15 -10 -23 -27 -23 -45 0 -32 6 -37 65 -61 22 -9 42 -25
44 -35 7 -39 -76 -63 -86 -24 -8 30 -25 24 -21 -7 3 -24 8 -28 39 -31 47 -4
88 13 98 40 13 35 2 55 -37 73 -59 25 -67 31 -70 48 -4 20 33 40 58 32 11 -4
20 -13 20 -21 0 -22 17 -16 23 8 8 28 6 29 -45 35 -30 3 -50 -1 -65 -12z"/>
<path d="M1003 1103 c-16 -3 -23 -11 -23 -29 0 -13 5 -24 10 -24 6 0 10 7 10
15 0 20 43 29 69 15 14 -7 21 -21 21 -39 0 -26 -3 -29 -45 -34 -74 -8 -103
-47 -69 -95 18 -26 44 -28 84 -7 18 9 31 11 35 5 3 -6 21 -10 38 -9 30 0 31 1
10 11 -21 10 -23 18 -23 89 0 69 -2 80 -22 93 -22 16 -49 18 -95 9z m87 -138
c0 -27 -25 -45 -64 -45 -22 0 -26 5 -26 29 0 32 9 39 58 40 28 1 32 -2 32 -24z"/>
<path d="M1771 1096 c-47 -26 -66 -103 -40 -160 22 -47 117 -60 150 -19 12 14
10 15 -21 8 -19 -5 -44 -8 -55 -7 -24 1 -55 37 -55 63 0 17 8 19 69 19 39 0
72 4 75 8 3 5 1 25 -4 44 -15 52 -68 72 -119 44z m67 -22 c12 -8 22 -24 22
-35 0 -16 -7 -19 -55 -19 -61 0 -67 9 -30 45 28 29 33 30 63 9z"/>
<path d="M1203 1086 c13 -10 17 -28 17 -85 0 -58 4 -75 20 -91 24 -24 51 -25
90 -5 18 9 31 11 35 5 3 -6 21 -10 38 -9 30 0 31 1 10 11 -21 10 -23 18 -23
100 l0 88 -37 -1 c-35 0 -36 -1 -15 -11 19 -10 22 -19 22 -73 0 -69 -17 -95
-63 -95 -36 0 -47 25 -47 109 l0 71 -32 0 c-30 -1 -31 -2 -15 -14z"/>
<path d="M233 1012 l-33 -16 0 -107 0 -108 96 -57 96 -56 33 18 34 18 -27 16
c-15 9 -57 33 -94 54 l-67 37 -3 108 -3 108 -32 -15z"/>
<path d="M585 854 c-49 -29 -94 -54 -98 -54 -5 0 -46 23 -93 50 -47 28 -87 50
-89 50 -3 0 -5 -15 -5 -34 0 -33 5 -38 88 -87 48 -28 92 -52 97 -52 6 0 52 24
103 53 90 53 92 55 92 92 0 21 -1 38 -2 37 -2 0 -43 -25 -93 -55z"/>
</g>
</svg>
