<svg id="Capa_1" enable-background="new 0 0 512 512" height="512" viewBox="0 0 512 512" width="512" xmlns="http://www.w3.org/2000/svg"><g><g><path d="m485.704 26.293c21.72 21.722 21.72 56.938 0 78.66l-37.021 37.024-78.659-78.667 37.013-37.017c21.723-21.724 56.944-21.724 78.667 0z" fill="#ff5d5d"/></g><g><g><path d="m73.877 488.436-50.277-50.282-13.562 63.846z" fill="#6eb4c7"/></g><g><path d="m52.617 380.75-12.211 12.213c-5.971 5.972-10.083 13.547-11.838 21.807l-4.968 23.384 50.277 50.282 23.382-4.968c8.26-1.755 15.834-5.867 21.805-11.839l12.211-12.213" fill="#fff"/></g><g><path d="m307.587 283.087 83.564-83.572-39.329-39.333-253.526 253.551c-1.729 12.205 2.1 25.047 11.487 34.434 6.085 6.085 13.62 9.835 21.493 11.249l106.71-106.72" fill="#fee77b"/></g><g><path d="m351.822 160.182-39.329-39.333-259.876 259.901c1.414 7.874 5.163 15.41 11.248 21.495 9.387 9.388 22.227 13.217 34.431 11.488z" fill="#ffc857"/></g><g><g><path d="" fill="#fee77b"/></g><g><path d="m272.314 328.358c-8.8.069-13.34-10.895-7.07-17.07 3.723-3.867 10.422-3.868 14.139 0 6.275 6.188 1.741 17.133-7.069 17.07z"/></g></g></g><path d="m310.582 125.456h111.246v40.683h-111.246z" fill="#6eb4c7" transform="matrix(-.707 -.707 .707 -.707 522.038 507.845)"/><g><g><path d="m374.629 61.405h40.683v111.246h-40.683z" fill="#b8ecff" transform="matrix(.707 -.707 .707 .707 32.923 313.545)"/></g><path d="m492.775 19.223c-12.394-12.396-28.875-19.223-46.405-19.223-17.529 0-34.01 6.827-46.404 19.223l-366.632 366.669c-7.356 7.356-12.387 16.624-14.548 26.8l-18.53 87.23c-.704 3.312.316 6.755 2.711 9.149 1.895 1.895 4.447 2.929 7.071 2.929.691 0 1.388-.072 2.078-.218l87.222-18.532c10.177-2.163 19.443-7.194 26.797-14.55l118.921-118.933c3.905-3.906 3.905-10.237-.001-14.142-3.905-3.905-10.237-3.905-14.142 0l-102.668 102.679c-4.26-1.508-8.137-3.953-11.392-7.208-6.122-6.122-9.294-14.308-8.942-22.837l243.91-243.934 25.188 25.19-76.493 76.501c-3.905 3.906-3.905 10.237 0 14.142s10.238 3.905 14.142 0l178.116-178.134c25.584-25.586 25.584-67.216.001-92.801zm-180.283 115.768 25.188 25.19-243.911 243.936c-8.534.352-16.712-2.821-22.833-8.942-3.255-3.256-5.699-7.134-7.207-11.396zm-282.938 323.26 24.228 24.231-30.765 6.536zm83.677 5.069-1.239 1.239c-4.614 4.615-10.427 7.771-16.811 9.128l-18.072 3.839-42.6-42.604 3.839-18.074c1.356-6.385 4.513-12.199 9.128-16.815l1.236-1.237c2.199 3.812 4.906 7.346 8.079 10.52 8.562 8.562 19.559 13.635 31.274 14.646 1.01 11.716 6.083 22.715 14.644 31.277 3.176 3.173 6.71 5.881 10.522 8.081zm277.92-277.948-64.518-64.524 14.625-14.626 64.517 64.524zm28.766-28.769-64.517-64.524 14.624-14.626 64.518 64.524zm58.716-58.721-29.949 29.952-64.518-64.524 29.943-29.946c8.617-8.618 20.074-13.364 32.261-13.364s23.645 4.746 32.262 13.364c17.786 17.788 17.786 46.731.001 64.518z"/></g></g></svg>