<svg xmlns="http://www.w3.org/2000/svg" width="48.152" height="48.154" viewBox="0 0 48.152 48.154">
  <g id="we-do-3" transform="translate(-1.846 -1.846)">
    <path id="Path_59" data-name="Path 59" d="M46,18.78A3.994,3.994,0,0,0,42.432,21L32.309,17.386a6.492,6.492,0,0,0,.08-1.008,6.36,6.36,0,0,0-1.262-3.8l5.65-3.767a4.037,4.037,0,1,0-.887-1.333L30.006,11.4a6.367,6.367,0,0,0-7.877-.124L19.685,8.223a4.064,4.064,0,1,0-1.158,1.115l2.45,3.061a6.374,6.374,0,0,0-1.34,3.179H9.894a4,4,0,1,0,0,1.6h9.738a6.335,6.335,0,0,0,.64,2.105L8.221,29.08a4.063,4.063,0,1,0,1.114,1.156l12.136-9.86a.8.8,0,0,0,.571-1.254,4.8,4.8,0,1,1,7.885,0l1.313.915a6.319,6.319,0,0,0,.607-1.117l10.171,3.633c0,.08-.023.15-.023.228a4,4,0,1,0,4-4Zm-6.4-15.21a2.4,2.4,0,1,1-2.4,2.4,2.4,2.4,0,0,1,2.4-2.4Zm-23.215,4.8a2.4,2.4,0,1,1,2.4-2.4A2.4,2.4,0,0,1,16.379,8.373ZM5.972,18.78a2.4,2.4,0,1,1,2.4-2.4,2.4,2.4,0,0,1-2.4,2.4Zm0,16.01a2.4,2.4,0,1,1,2.4-2.4,2.4,2.4,0,0,1-2.4,2.4ZM46,25.184a2.4,2.4,0,1,1,2.4-2.4A2.4,2.4,0,0,1,46,25.184Z" transform="translate(0 0)" fill="#00adb5"/>
    <path id="Path_60" data-name="Path 60" d="M44.414,30.808a3.194,3.194,0,0,0-2.4,1.086,3.2,3.2,0,0,0-4.8,0,3.2,3.2,0,0,0-4-.656V21.2a3.2,3.2,0,0,0-6.4,0V34.09a5.588,5.588,0,0,0-4-1.681.8.8,0,0,0-.8.8V47.619a.8.8,0,0,0,.234.566l5.038,5.038h2.264L23.6,47.287V34.09a4.009,4.009,0,0,1,3.2,3.923v5.6a.8.8,0,0,0,1.6,0V21.2a1.6,1.6,0,1,1,3.2,0V35.611a.8.8,0,0,0,1.6,0v-1.6a1.6,1.6,0,0,1,3.2,0v1.6a.8.8,0,1,0,1.6,0v-1.6a1.6,1.6,0,0,1,3.2,0v1.6a.8.8,0,0,0,1.6,0v-1.6a1.6,1.6,0,0,1,3.2,0V53.222h1.6V34.01A3.2,3.2,0,0,0,44.414,30.808Z" transform="translate(-4.02 -3.223)" fill="#00adb5"/>
  </g>
</svg>
