<svg xmlns="http://www.w3.org/2000/svg" width="53.947" height="42.07" viewBox="0 0 53.947 42.07">
  <g id="we-do-2" transform="translate(12.41 -88.75)">
    <g id="Group_133" data-name="Group 133" transform="translate(-12.41 88.75)">
      <path id="Path_52" data-name="Path 52" d="M38.24,45.246h2.3v2.391a1.151,1.151,0,1,0,2.3,0V45.246h2.391a1.151,1.151,0,1,0,0-2.3H42.846V40.551A1.172,1.172,0,0,0,41.694,39.4a1.253,1.253,0,0,0-1.151,1.24v2.391H38.151a1.111,1.111,0,1,0,.089,2.214Z" transform="translate(-5.638 -11.855)" fill="#00adb5"/>
      <path id="Path_53" data-name="Path 53" d="M28.566,52.182H51.328a2.665,2.665,0,0,0,2.657-2.657V37.3h2.746a1.151,1.151,0,0,0,0-2.3H23.251a1.151,1.151,0,1,0,0,2.3H26V49.525A2.537,2.537,0,0,0,28.566,52.182Zm23.205-2.657a.418.418,0,0,1-.443.443H28.566a.418.418,0,0,1-.443-.443V37.3H51.771Z" transform="translate(-3.935 -11.352)" fill="#00adb5"/>
      <path id="Path_54" data-name="Path 54" d="M37.542,24.5a4.9,4.9,0,0,0-1.683,1.86,3.935,3.935,0,0,0-.266,2.214v2.037a1.1,1.1,0,0,0,1.151,1.063h0a1.1,1.1,0,0,0,1.063-1.151V28.393a5.067,5.067,0,0,1,.089-1.24,4.009,4.009,0,0,1,1.063-1.063l.8-.531L41,24.85a2.22,2.22,0,0,0,.62-.354.087.087,0,0,0,.089-.089l.8.8c.62.531,1.151,1.063,1.771,1.594l1.329,1.24.709-.709c.886-.8,1.683-1.506,2.48-2.3a4.091,4.091,0,0,0,.62-.62l.089.089c.177.089.443.177.62.266l.266.089c.266.089.443.266.531.266l.709.443c.177.089.354.266.531.354a2.862,2.862,0,0,1,1.063.974,5.067,5.067,0,0,1,.089,1.24v2.037a1.16,1.16,0,0,0,1.063,1.151h0a1.231,1.231,0,0,0,1.151-1.063V28.3a4.914,4.914,0,0,0-.266-2.214,6.075,6.075,0,0,0-2.391-2.3l-.8-.443c-.177-.089-.443-.266-.62-.354l-.266-.089c-.266-.089-.443-.266-.709-.354l-.089-.089a1.758,1.758,0,0,0-2.214.177l-.177.177-.709.709c-.531.531-1.151,1.063-1.683,1.594-.531-.443-1.063-.974-1.594-1.506a5.73,5.73,0,0,0-.8-.709l-.266-.266a1.442,1.442,0,0,0-1.683-.354c-.177.089-.443.177-.62.266-.266.089-.443.266-.709.354l-1.417.886C38.162,24.053,37.9,24.23,37.542,24.5Z" transform="translate(-5.472 -9.882)" fill="#00adb5"/>
      <path id="Path_55" data-name="Path 55" d="M49,16.714l-.089.443a1.161,1.161,0,0,0,.709,1.417c.089,0,.177.089.354.089a1.241,1.241,0,0,0,1.063-.8l.177-.443c.089-.354.266-.709.354-1.151a9.59,9.59,0,0,0,.266-3.1A5.087,5.087,0,0,0,47.052,8.3h-.531a6.208,6.208,0,0,0-4.34,1.329A5.828,5.828,0,0,0,40.5,13.437a10.689,10.689,0,0,0,.8,4.428,1.177,1.177,0,0,0,.886.709,1.1,1.1,0,0,0,1.24-.974,1.313,1.313,0,0,0-.089-.62,7.714,7.714,0,0,1-.62-3.454,3.683,3.683,0,0,1,.974-2.3,3.927,3.927,0,0,1,2.746-.709h.443a3.062,3.062,0,0,1,2.834,2.923,5.437,5.437,0,0,1-.266,2.3A10.39,10.39,0,0,0,49,16.714Z" transform="translate(-6.036 -8.3)" fill="#00adb5"/>
      <path id="Path_56" data-name="Path 56" d="M7.228,20.257a4.441,4.441,0,0,0,4.428-4.428A4.5,4.5,0,0,0,7.228,11.4a4.428,4.428,0,1,0,0,8.857Zm0-6.731A2.214,2.214,0,1,1,5.014,15.74,2.193,2.193,0,0,1,7.228,13.526Z" transform="translate(-1.729 -8.654)" fill="#00adb5"/>
      <path id="Path_57" data-name="Path 57" d="M18.978,45.761c-.531,2.214-1.151,4.428-1.683,6.731a1.049,1.049,0,0,0,.8,1.329h.266a1.063,1.063,0,0,0,1.063-.8c.531-2.214,1.151-4.428,1.683-6.731l.177-.531c.443-1.594.974-3.543-.089-5.226a2.921,2.921,0,0,0-2.569-1.329c-.354,0-4.163-.354-5.58-.531-.531-.089-.974-.089-1.506-.177a1.115,1.115,0,1,0-.266,2.214c.443.089.974.089,1.417.177,1.506.177,5.314.531,5.757.531.62,0,.8.177.8.177.531.974.177,2.3-.177,3.631C19.067,45.318,18.978,45.584,18.978,45.761Z" transform="translate(-2.585 -11.751)" fill="#00adb5"/>
      <path id="Path_58" data-name="Path 58" d="M1.6,28.616a23.136,23.136,0,0,0,1.24,7.528c.266.974.531,2.037.8,3.1.709,2.391,1.949,3.986,3.72,4.606a10.569,10.569,0,0,0,3.277.531c.974,0,1.949-.089,2.923-.177L13.29,41.99a12.826,12.826,0,0,1-5.226-.177C7,41.37,6.2,40.4,5.673,38.624c-.266-.974-.531-2.037-.8-3.011A26.232,26.232,0,0,1,3.725,28.7c0-1.417.266-1.949.886-2.3a2.051,2.051,0,0,1,2.126.354,2.6,2.6,0,0,1,.886,1.063c.089.177.089.266.177.443.089.354.266.709.354,1.063a.8.8,0,0,0,.089.443c.089.974.177,2.391,1.506,3.1h.089c.62.354,5.226,2.746,5.226,2.746a1.11,1.11,0,0,0,1.063-1.949c-3.9-2.037-4.96-2.657-5.314-2.746h0c-.266-.089-.354-.886-.354-1.329a1.729,1.729,0,0,0-.089-.62,7.481,7.481,0,0,0-.443-1.506,4.318,4.318,0,0,1-.266-.62,6.368,6.368,0,0,0-1.594-1.86,4.32,4.32,0,0,0-4.34-.531C1.6,25.428,1.6,27.465,1.6,28.616Z" transform="translate(-1.59 -10.105)" fill="#00adb5"/>
    </g>
  </g>
</svg>
