<svg xmlns="http://www.w3.org/2000/svg" width="40.839" height="48.598" viewBox="0 0 40.839 48.598">
  <g id="we-do-1" transform="translate(-12.184 -5)">
    <path id="Path_48" data-name="Path 48" d="M33.271,74.379H31.932c-.177,0-17.733-.153-19.26-5.609-1.226-4.92-.732-11.553,8.551-15.352.684-.279,1.908-.753,1.908-.753a4.824,4.824,0,0,0,1.368-.906l.038-.037,1.18-1.079a1.556,1.556,0,0,1,1.09-.468,1.443,1.443,0,0,1,1.379,1.168L32.6,63.714l4.364-12.367a1.426,1.426,0,0,1,1.362-1.164,1.551,1.551,0,0,1,1.092.481l1.148,1.014a.608.608,0,0,1,.051.048,4.775,4.775,0,0,0,1.369.9s1.308.506,2,.788c9.284,3.8,9.778,10.431,8.558,15.327C51,74.227,33.448,74.379,33.271,74.379ZM25.782,53.046a6.544,6.544,0,0,1-2,1.314s-1.2.466-1.875.74c-6.487,2.655-9.005,7.1-7.483,13.206.83,2.963,11.994,4.257,17.5,4.257h1.339c5.51,0,16.674-1.293,17.511-4.283,1.517-6.082-1-10.526-7.49-13.18-.677-.278-1.962-.775-1.962-.775a6.519,6.519,0,0,1-1.991-1.307l-.794-.7L33.751,65.9A1.205,1.205,0,0,1,32.6,66.92c-.255,0-.881-.1-1.165-1.06L26.6,52.3Z" transform="translate(0 -20.782)" fill="#00adb5"/>
    <g id="Group_129" data-name="Group 129" transform="translate(38.284 37.747)">
      <g id="Group_128" data-name="Group 128">
        <path id="Path_49" data-name="Path 49" d="M65.947,73.917H63.366a.649.649,0,0,1-.649-.649V71.72H61.169a.649.649,0,0,1-.649-.649V68.49a.649.649,0,0,1,.649-.65h1.548V66.294a.648.648,0,0,1,.649-.649h2.582a.649.649,0,0,1,.649.649v1.547h1.548a.649.649,0,0,1,.649.65v2.581a.648.648,0,0,1-.649.649H66.6v1.549A.65.65,0,0,1,65.947,73.917Zm-1.933-1.3H65.3V71.1a.7.7,0,0,1,.676-.676H67.5V69.139H65.975a.7.7,0,0,1-.676-.676v-1.52H64.014v1.52a.7.7,0,0,1-.676.676H61.818v1.284h1.521a.7.7,0,0,1,.676.676Z" transform="translate(-60.52 -65.645)" fill="#00adb5"/>
      </g>
    </g>
    <path id="Path_50" data-name="Path 50" d="M41.3,36.019c-4.59,0-7.379-4.555-7.948-6.633-.121-.44-.231-.937-.327-1.483A3.362,3.362,0,0,1,31.8,26.385a14.03,14.03,0,0,1-.576-2.959,4.754,4.754,0,0,1,.4-2.563,6.141,6.141,0,0,1,.449-2.3.909.909,0,0,1,1.751.485,4.972,4.972,0,0,0-.385,2.058.9.9,0,0,1-.175.536,3.005,3.005,0,0,0-.228,1.632,12.493,12.493,0,0,0,.45,2.429,1.517,1.517,0,0,0,.758.807.908.908,0,0,1,.506.678,16.577,16.577,0,0,0,.357,1.715c.387,1.416,2.574,5.3,6.2,5.3,3.655,0,5.919-3.937,6.289-5.294a16.116,16.116,0,0,0,.358-1.716.908.908,0,0,1,.506-.68,1.521,1.521,0,0,0,.762-.814,12.3,12.3,0,0,0,.445-2.406,2.962,2.962,0,0,0-.231-1.656.907.907,0,0,1-.171-.531,6.382,6.382,0,0,0-.294-2.138.908.908,0,0,1,1.774-.39,7.336,7.336,0,0,1,.336,2.287,4.887,4.887,0,0,1,.4,2.589h0a13.945,13.945,0,0,1-.571,2.924,3.38,3.38,0,0,1-1.23,1.525c-.077.436-.186.965-.328,1.485C48.713,31.7,45.708,36.019,41.3,36.019Z" transform="translate(-8.746 -5.917)" fill="#00adb5"/>
    <path id="Path_51" data-name="Path 51" d="M50.512,14.093H32.943a.922.922,0,0,1-.922-.921C32.021,8.207,35.831,5,41.728,5s9.707,3.207,9.707,8.171A.922.922,0,0,1,50.512,14.093Zm-16.59-1.843H49.533c-.5-3.964-4.266-5.406-7.806-5.406S34.424,8.285,33.922,12.249Z" transform="translate(-9.125)" fill="#00adb5"/>
  </g>
</svg>
